<svg xmlns="http://www.w3.org/2000/svg" version="1.1" xmlns:xlink="http://www.w3.org/1999/xlink" xmlns:svgjs="http://svgjs.com/svgjs" width="51" height="51" x="0" y="0" viewBox="0 0 512 512" style="enable-background:new 0 0 512 512" xml:space="preserve"><g>
<g xmlns="http://www.w3.org/2000/svg">
	<path style="" d="M274.631,32.95c-0.46,0-0.88-0.213-1.184-0.599c-0.964-1.23-2.922-6.154-4.168-9.434   c-0.949,0.024-1.874,0.037-2.761,0.037c-6.888,0-9.483-0.701-9.576-2.587c-0.017-0.348,0.133-0.682,0.404-0.901   c0.038-0.031,3.791-3.058,8.367-6.542c-3.505-10.482-2.996-11.19-2.622-11.711c0.271-0.38,0.933-0.592,1.376-0.444   c0.998,0.329,6.293,3.729,9.69,5.964c6.223-4.324,8.093-4.892,9.022-4.892c0.931,0,1.41,0.583,1.549,1.128   c0.366,1.438-0.636,6.004-1.623,9.857c8.608,6.097,8.42,6.825,8.203,7.666c-0.104,0.406-0.46,0.865-1.143,0.94   c-1.527,0.166-5.449,0.555-9.816,0.886C276.876,32.95,275.475,32.95,274.631,32.95z M271.583,22.842   c1.527,3.979,2.576,6.354,3.17,7.479c0.613-0.959,1.712-3.275,3.242-7.833C275.685,22.645,273.54,22.764,271.583,22.842z    M259.816,20.282c0.912,0.228,2.811,0.493,6.702,0.493c0.632,0,1.285-0.006,1.951-0.019c-0.688-1.863-1.371-3.778-2.017-5.655   C263.619,17.267,261.164,19.208,259.816,20.282z M268.281,13.712c0.787,2.308,1.638,4.694,2.489,6.98   c2.364-0.084,5.031-0.232,7.951-0.44c0.664-2.108,1.31-4.334,1.892-6.514c-2.068-1.445-4.287-2.951-6.42-4.368   C272.431,10.621,270.447,12.077,268.281,13.712z M282.51,15.078c-0.456,1.674-0.946,3.363-1.451,4.998   c2.823-0.221,5.393-0.46,7.152-0.634C287.313,18.652,285.637,17.313,282.51,15.078z M265.224,3.638   c0.315,1.411,1.004,3.894,2.326,7.896c1.685-1.265,3.256-2.42,4.695-3.45C269.022,5.971,266.64,4.481,265.224,3.638z M276.115,8.03   c1.694,1.131,3.426,2.307,5.08,3.456c0.954-3.833,1.351-6.209,1.428-7.324C281.826,4.457,280.027,5.352,276.115,8.03z" fill="#241726" data-original="#241726"></path>
	<g>
		<path style="" d="M13.942,146.795c0,0-14.502-22.677-4.618-29.417c9.884-6.74,14.188,18.295,7.566,15.72    c-6.814-2.649,9.432-19.651,14.463-9.983S13.942,146.795,13.942,146.795z" fill="#FFFFFF" data-original="#ffffff"></path>
		<path style="" d="M13.942,147.885c-0.36,0-0.711-0.178-0.92-0.502c-0.615-0.962-14.949-23.651-4.314-30.904    c4.392-2.994,8.89-0.661,11.155,5.442c2.341-1.819,4.817-2.84,6.962-2.84c1.668,0,3.974,0.613,5.493,3.532    c5.433,10.442-16.849,24.513-17.801,25.107C14.339,147.832,14.139,147.885,13.942,147.885z M12.615,117.312    c-0.835,0-1.737,0.326-2.678,0.967c-7.837,5.344,1.836,22.763,4.354,26.997c6.457-4.238,19.656-14.812,16.095-21.657    c-0.826-1.588-1.991-2.36-3.56-2.36c-1.827,0-4.136,1.078-6.268,2.909c0.802,3.237,0.944,7.12-0.503,9.037    c-0.843,1.113-2.145,1.459-3.56,0.908c-1.252-0.485-2.036-1.391-2.269-2.618c-0.494-2.601,1.676-5.832,3.87-8.017    C17.099,120.391,15.199,117.312,12.615,117.312z M18.721,126.001c-1.634,1.897-2.583,3.883-2.354,5.088    c0.061,0.32,0.22,0.723,0.917,0.994c0.399,0.154,0.642,0.321,1.03-0.192C18.953,131.048,19.204,128.755,18.721,126.001z" fill="#241726" data-original="#241726"></path>
	</g>
	<g>
		<path style="" d="M34.491,449.651c0,0-2.151-16.327,13.565-11.044c15.715,5.283,10.595,20.231,4.603,15.116    c-5.991-5.115,5.25-22.465,17.276-14.739s9.336,22.716,0.806,23.822c-8.53,1.106,5.164-17.454,15.909-5.991    c10.746,11.462-12.716,32.361-22.31,24.677c-9.595-7.683-2.086-20.085,0.216-12.527s-3.905,14.969-20.922,14.677    c-17.017-0.293-9.271-26.474-3.323-18.853c5.948,7.621-3.927,16.222-15.931,7.244C12.375,463.053,26.069,444.493,34.491,449.651z" fill="#FFFFFF" data-original="#ffffff"></path>
		<path style="" d="M44.601,484.739l-0.987-0.009c-5.578-0.096-9.504-2.955-10.887-7.878    c-2.936-0.371-6.03-1.725-9.001-3.948c-4.704-3.519-6.298-8.858-4.371-14.651c1.973-5.934,7.231-10.582,11.968-10.582    c0.682,0,1.343,0.092,1.976,0.274c-0.02-2.272,0.33-6.14,2.634-8.768c2.578-2.935,6.813-3.504,12.468-1.604    c2.181,0.733,4.091,1.686,5.694,2.836c2.704-2.851,6.154-4.468,9.601-4.468c2.334,0,4.631,0.715,6.825,2.124    c5.198,3.34,8.353,8.474,8.611,13.909c3.05,0.087,5.844,1.462,8.31,4.093c3.346,3.569,3.962,8.363,1.737,13.501    c-3.385,7.813-12.628,14.667-19.78,14.667c-2.24,0.001-4.172-0.638-5.743-1.896c-0.75-0.6-1.428-1.251-2.026-1.94    C57.875,483.242,52.021,484.739,44.601,484.739z M35.038,476.937c0.972,2.75,3.278,5.522,8.615,5.613l0.948,0.009    c8.556,0,13.229-2.007,15.738-3.913c-2.396-3.876-2.213-8.113-0.879-10.738c0.771-1.517,1.889-2.387,3.068-2.387    c0.792,0,2.241,0.407,3.071,3.126c1.153,3.786,0.297,7.486-2.341,10.301c0.516,0.599,1.107,1.167,1.764,1.692    c1.175,0.94,2.648,1.418,4.381,1.417c6.277,0,14.752-6.365,17.78-13.354c1.314-3.035,2.152-7.433-1.327-11.144    c-2.049-2.186-4.326-3.33-6.773-3.404c-0.513,5.219-3.779,9.158-8.201,9.731c-2.879,0.379-3.842-1.131-3.899-2.527    c-0.123-3.075,4.308-8.244,9.978-9.225c-0.206-4.75-3-9.269-7.614-12.233c-4.536-2.916-9.742-2.05-13.564,1.9    c3.712,3.534,4.403,7.88,3.367,10.781c-0.723,2.023-2.27,3.28-4.04,3.281c0,0,0,0-0.001,0c-1.061,0-2.152-0.453-3.158-1.311    c-3.306-2.824-2.237-8.337,0.749-12.461c-1.401-0.984-3.075-1.807-4.992-2.451c-4.745-1.595-8.148-1.289-10.131,0.97    c-2.72,3.095-2.014,8.842-2.006,8.901c0.054,0.415-0.135,0.826-0.487,1.055c-0.353,0.229-0.805,0.236-1.162,0.015    c-0.79-0.483-1.664-0.729-2.598-0.729c-3.791,0-8.232,4.078-9.9,9.091c-1.611,4.844-0.296,9.297,3.608,12.217    c2.423,1.811,4.903,2.977,7.255,3.419c-0.483-4.229,0.81-8.35,2.516-10.466c0.95-1.18,2.061-1.804,3.209-1.804    c0.796,0,1.99,0.314,3.157,1.809c2.114,2.708,2.594,5.761,1.318,8.377C41.226,475.075,38.41,476.739,35.038,476.937z     M62.528,467.7c-0.2,0-0.683,0.325-1.125,1.194c-0.976,1.921-1.136,5.18,0.567,8.224c1.875-2.199,2.426-4.938,1.542-7.838    C63.162,468.13,62.723,467.7,62.528,467.7z M38.012,464.487c-0.46,0-0.996,0.352-1.511,0.992    c-1.453,1.803-2.518,5.658-1.988,9.297c2.762-0.045,5.058-1.276,6.014-3.239c0.897-1.838,0.504-4.054-1.076-6.079    C39.105,465.015,38.575,464.487,38.012,464.487z M76.862,454.373c-4.57,1.015-7.769,5.212-7.701,6.899    c0.009,0.208,0.019,0.492,0.889,0.492c0.168,0,0.352-0.013,0.55-0.038C73.871,461.3,76.324,458.352,76.862,454.373z     M54.383,443.479c-2.577,3.59-3.071,7.662-1.016,9.415c1.55,1.324,3.058,0.84,3.73-1.045    C57.881,449.653,57.299,446.315,54.383,443.479z" fill="#241726" data-original="#241726"></path>
	</g>
	<g>
		<path style="" d="M413.032,220.93c0,0-2.151-16.327,13.565-11.044c15.715,5.283,10.595,20.231,4.603,15.116    c-5.991-5.115,5.25-22.465,17.276-14.739c12.026,7.725,9.336,22.716,0.806,23.822c-8.53,1.106,5.164-17.454,15.909-5.991    s-12.716,32.361-22.31,24.677c-9.595-7.683-2.086-20.085,0.216-12.527c2.302,7.558-3.905,14.969-20.922,14.677    s-9.271-26.474-3.323-18.853c5.948,7.621-3.927,16.222-15.931,7.244C390.916,234.333,404.61,215.773,413.032,220.93z" fill="#FFFFFF" data-original="#ffffff"></path>
		<path style="" d="M423.141,256.018l-0.987-0.009c-5.578-0.096-9.504-2.955-10.887-7.878    c-2.935-0.371-6.03-1.726-9.001-3.949c-4.704-3.518-6.298-8.857-4.371-14.65c1.973-5.934,7.231-10.582,11.968-10.582    c0.682,0,1.343,0.092,1.977,0.272c-0.021-2.271,0.33-6.139,2.634-8.767c2.576-2.934,6.813-3.503,12.467-1.604    c2.181,0.733,4.091,1.685,5.694,2.836c2.703-2.852,6.153-4.469,9.601-4.469c2.334,0,4.631,0.715,6.825,2.125    c5.198,3.339,8.353,8.473,8.611,13.91c3.05,0.087,5.845,1.462,8.311,4.093c3.345,3.569,3.962,8.363,1.736,13.501    c-3.385,7.813-12.628,14.667-19.78,14.667c-2.24,0.001-4.172-0.638-5.743-1.896c-0.75-0.6-1.428-1.251-2.026-1.94    C436.416,254.522,430.562,256.018,423.141,256.018z M413.579,248.216c0.971,2.751,3.278,5.523,8.615,5.614l0.948,0.009    c8.556,0,13.229-2.007,15.738-3.913c-2.396-3.876-2.212-8.113-0.879-10.739c0.771-1.516,1.889-2.386,3.069-2.386    c0.791,0,2.24,0.407,3.069,3.126c1.153,3.786,0.298,7.486-2.341,10.301c0.516,0.599,1.107,1.166,1.764,1.692    c1.175,0.94,2.648,1.418,4.381,1.417c6.277,0,14.752-6.365,17.78-13.354c1.315-3.035,2.152-7.433-1.326-11.144    c-2.05-2.186-4.327-3.33-6.774-3.404c-0.513,5.219-3.779,9.157-8.199,9.731c-0.299,0.038-0.577,0.056-0.831,0.056    c0,0-0.001,0-0.002,0c-2.184,0-3.015-1.335-3.066-2.583c-0.123-3.075,4.308-8.244,9.978-9.225c-0.206-4.75-3-9.27-7.614-12.233    c-4.539-2.915-9.741-2.052-13.564,1.9c3.712,3.534,4.403,7.88,3.367,10.781c-0.723,2.023-2.27,3.28-4.04,3.281c0,0,0,0-0.001,0    c-1.061,0-2.152-0.453-3.158-1.311c-3.306-2.824-2.237-8.337,0.748-12.462c-1.4-0.983-3.074-1.806-4.991-2.45    c-4.749-1.598-8.153-1.285-10.134,0.974c-2.728,3.11-2.01,8.837-2.003,8.894c0.055,0.417-0.134,0.828-0.486,1.057    c-0.353,0.228-0.805,0.234-1.163,0.015c-0.79-0.483-1.665-0.729-2.598-0.729c-3.791,0-8.232,4.078-9.9,9.091    c-0.762,2.291-1.936,8.07,3.608,12.216c2.423,1.813,4.904,2.978,7.255,3.42c-0.483-4.229,0.81-8.348,2.516-10.466    c0.952-1.18,2.061-1.804,3.21-1.804c0.796,0,1.989,0.314,3.157,1.809c2.114,2.708,2.593,5.76,1.317,8.376    C419.767,246.354,416.95,248.019,413.579,248.216z M441.07,238.98c-0.201,0-0.684,0.325-1.126,1.194    c-0.975,1.921-1.136,5.179,0.567,8.224c1.876-2.199,2.426-4.938,1.542-7.838C441.703,239.41,441.264,238.98,441.07,238.98z     M416.553,235.766c-0.46,0-0.997,0.352-1.512,0.992c-1.453,1.803-2.518,5.658-1.988,9.297c2.761-0.045,5.058-1.277,6.014-3.239    c0.897-1.838,0.506-4.054-1.075-6.079C417.646,236.294,417.116,235.766,416.553,235.766z M455.403,225.652    c-4.57,1.015-7.769,5.211-7.701,6.898c0.009,0.208,0.019,0.492,0.888,0.492c0.001,0,0.001,0,0.001,0    c0.169,0,0.353-0.013,0.551-0.038C452.412,232.579,454.864,229.632,455.403,225.652z M432.924,214.757    c-2.577,3.59-3.071,7.663-1.016,9.416c1.55,1.323,3.058,0.839,3.73-1.044C436.422,220.932,435.84,217.594,432.924,214.757z" fill="#241726" data-original="#241726"></path>
	</g>
	<g>
		<path style="" d="M435.436,444.066c-0.805,0-3.255,0-6.877-19.445c-0.073-0.394,0.076-0.797,0.388-1.048    c8.608-6.923,21.337-17.379,27.228-22.663c-7.387,3.709-23.261,12.48-33.804,18.443c-0.263,0.151-0.58,0.183-0.87,0.089    c-1.836-0.589-11.056-3.696-12.295-7.087c-0.096-0.263-0.196-0.793,0.218-1.386c2.801-4.005,44.845-14.063,50.164-14.063    c0.514,0,0.867,0.061,1.147,0.196c0.001,0.001,0.001,0.001,0.002,0.001c0.067,0.033,0.129,0.071,0.186,0.116    c0.006,0.004,0.012,0.009,0.018,0.013c0.006,0.005,0.013,0.01,0.02,0.015c0.084,0.06,0.161,0.131,0.227,0.214    c0.513,0.645,0.681,1.345-2.18,7.363c-3.031,6.378-20.342,39.206-23.557,39.242C435.45,444.066,435.441,444.066,435.436,444.066z     M430.824,424.862c1.356,7.111,3.379,14.979,4.616,16.786c3.266-3.468,17.652-29.056,22.362-39.317    C454.01,405.85,446.322,412.389,430.824,424.862z M411.462,411.98c1.218,1.682,6.425,3.965,10.257,5.239    c6.458-3.651,22.349-12.571,31.628-17.251C440.572,402.43,414.778,409.367,411.462,411.98z" fill="#241726" data-original="#241726"></path>
		<path style="" d="M424.464,437.081c-0.565,0-0.946-0.232-1.171-0.434c-1.395-1.258-2.109-10.373-2.463-17.797    c-0.029-0.601,0.435-1.112,1.037-1.141c0.573-0.044,1.112,0.434,1.141,1.037c0.315,6.624,1.031,14.322,1.69,16.096    c0.981-0.385,3.39-2.52,5.473-4.887c0.4-0.452,1.086-0.494,1.539-0.098c0.451,0.398,0.495,1.087,0.098,1.539    c-1.146,1.302-5.053,5.558-7.22,5.683C424.545,437.08,424.505,437.081,424.464,437.081z" fill="#241726" data-original="#241726"></path>
	</g>
	<g>
		<path style="" d="M386.424,123.992c0,0-1.816,62.848-12.715,79.559c-5.683,8.714-74.473,28.7-81.739,21.434    c-7.266-7.266-5.813-39.961-5.813-39.961s51.95-11.262,54.493-10.899c0,0,5.987-49.91,12.715-51.223    C368.26,119.995,386.424,123.992,386.424,123.992z" fill="#B1739A" data-original="#b1739a"></path>
		<path style="" d="M189.16,88.753c0,0-37.055-14.168-51.768,17.983s-2.18,35.42-21.252,39.235    c-14.702,2.94-16.348,19.072,3.27,25.612c0,0-7.084,4.282-7.084,11.988c0,5.994,21.797,20.162,35.965,9.264    c0,0-11.988,4.359-8.719,9.809c3.27,5.449,42.868,15.965,65.755-2.563S226.215,92.567,189.16,88.753z" fill="#E7BB00" data-original="#e7bb00"></path>
		<path style="" d="M227.194,153.058c0,0,7.569,35.898,12.1,39.776c4.53,3.878,24.245,2.088,38.145,7.084    c13.9,4.996,9.264,63.212-5.994,76.29c-6.93,5.94-0.182-9.445-40.506,2.543c-27.855,8.281-26.732-43.918-34.875-55.946    s9.159-22.442,9.631-33.326c0.576-13.278-18.065-32.085-15.348-33.29C193.062,154.985,227.194,153.058,227.194,153.058z" fill="#E47947" data-original="#e47947"></path>
		<path style="" d="M157.783,120.093c0,0,24.941-34.249,49.5-29.01c10.484,2.236,48.333,34.716,45.341,52.447    c-2.632,15.595-11.98,20.09-15.651,23.542c-26.681,25.082-48.585-0.163-48.585-0.163S144.298,135.076,157.783,120.093z" fill="#E47947" data-original="#e47947"></path>
		<path style="" d="M221.629,140.179c-0.222,0-0.446-0.068-0.64-0.209c-0.486-0.353-0.595-1.035-0.241-1.522    c0.191-0.263,4.485-6.16,7.296-8.903c-2.099-1.107-10.353-2.561-17.56-3.367c-0.598-0.067-1.029-0.607-0.962-1.205    c0.068-0.597,0.606-1.011,1.205-0.962c12.474,1.397,19.114,3.087,19.738,5.02c0.198,0.614,0.006,1.242-0.525,1.723    c-2.612,2.36-7.381,8.909-7.429,8.975C222.298,140.024,221.966,140.179,221.629,140.179z" fill="#241726" data-original="#241726"></path>
		<path style="" d="M203.728,142.123c-3.106,0-9.638-2.285-13.67-3.818c-0.562-0.214-0.845-0.843-0.631-1.406    c0.214-0.563,0.843-0.848,1.406-0.631c4.836,1.838,10.589,3.625,12.615,3.733c-0.864-1.668-4.534-5.942-7.927-9.395    c-0.423-0.43-0.416-1.12,0.013-1.541c0.43-0.424,1.12-0.417,1.541,0.013c3.377,3.436,9.001,9.525,8.722,11.7    c-0.059,0.454-0.314,0.84-0.722,1.083C204.773,142.042,204.312,142.123,203.728,142.123z" fill="#241726" data-original="#241726"></path>
		<path style="" d="M226.53,120.523c-1.384,0-4.648-0.839-13.054-4.995c-0.54-0.267-0.761-0.921-0.494-1.46    s0.919-0.759,1.46-0.494c4.032,1.993,8.8,4.05,11.01,4.635c-1.218-1.777-4.397-5.17-7.334-7.941    c-0.438-0.413-0.459-1.103-0.046-1.54c0.412-0.437,1.105-0.459,1.54-0.046c1.916,1.806,8.191,7.88,8.508,10.207    c0.073,0.537-0.137,1.041-0.562,1.346C227.401,120.349,227.159,120.523,226.53,120.523z" fill="#241726" data-original="#241726"></path>
		<path style="" d="M189.583,161.596c0,0-16.874-8.747-16.462,2.472c0.412,11.218,11.153,22.072,20.358,17.306    C202.684,176.608,189.583,161.596,189.583,161.596z" fill="#E47947" data-original="#e47947"></path>
		<path style="" d="M180.949,174.916c-0.435,0-0.846-0.262-1.014-0.692c-0.564-1.437-2.221-6.229,0.15-7.574    c1.962-1.12,6.847,2.274,10.597,5.317c0.467,0.379,0.54,1.065,0.16,1.533c-0.379,0.467-1.065,0.54-1.533,0.16    c-3.495-2.833-7.364-5.217-8.244-5.076c-0.265,0.311,0.031,2.634,0.898,4.844c0.22,0.56-0.055,1.192-0.616,1.412    C181.216,174.892,181.082,174.916,180.949,174.916z" fill="#241726" data-original="#241726"></path>
		<path style="" d="M220.451,174.815c-8.469,0-15.033-3.727-15.15-3.795c-0.519-0.303-0.695-0.97-0.393-1.49    c0.304-0.519,0.974-0.694,1.49-0.394c0.797,0.462,19.657,11.111,33.953-6.557c0.376-0.468,1.062-0.541,1.533-0.162    c0.468,0.379,0.541,1.064,0.162,1.533C235.173,172.443,227.206,174.815,220.451,174.815z" fill="#241726" data-original="#241726"></path>
		<path style="" d="M217.333,145.936c0,0,9.686-4.66,15.426-8.505c5.74-3.846,5.49,12.539-0.055,17.917    C227.159,160.727,214.447,148.952,217.333,145.936z" fill="#FBFFFF" data-original="#fbffff"></path>
		<g>
			<path style="" d="M91.882,352.688c0,0-9.377,18.105-16.296,19.772c-6.919,1.667-53.664,5.866-49.437-3.937     c4.227-9.803,29.98-33.577,41.576-37.103C79.32,327.895,91.882,352.688,91.882,352.688z" fill="#E17B8D" data-original="#e17b8d"></path>
			<path d="M32.841,370.478c-0.073,0-0.149-0.007-0.225-0.023c-0.589-0.122-0.966-0.7-0.843-1.29     c2.081-9.952,37.786-32.541,39.305-33.497c0.513-0.321,1.184-0.167,1.503,0.341c0.321,0.51,0.168,1.182-0.341,1.503     c-10.13,6.381-36.762,24.586-38.334,32.101C33.799,370.125,33.347,370.478,32.841,370.478z" fill="#000000" data-original="#000000"></path>
			<path style="" d="M46.669,375.224c-0.233,0-0.468-0.076-0.667-0.23c-0.475-0.368-0.562-1.053-0.193-1.528     c0.13-0.167,13.18-16.668,28.746-9.72c0.55,0.245,0.797,0.89,0.551,1.439c-0.245,0.549-0.891,0.797-1.439,0.551     c-14.006-6.246-26.017,8.913-26.136,9.067C47.316,375.079,46.995,375.224,46.669,375.224z" fill="#241726" data-original="#241726"></path>
			<path style="" d="M59.763,376.109c-0.218,0-0.438-0.065-0.629-0.201c-0.492-0.348-0.607-1.028-0.259-1.52     c0.085-0.12,8.535-12.165,5.113-18.455c-0.288-0.528-0.093-1.19,0.436-1.477c0.529-0.288,1.191-0.094,1.477,0.436     c4.071,7.48-4.867,20.22-5.249,20.758C60.44,375.949,60.105,376.109,59.763,376.109z" fill="#241726" data-original="#241726"></path>
		</g>
		<g>
			<path style="" d="M207.428,441.577c0,0,12.544,16.075,11.172,23.058c-1.371,6.984-17.053,51.219-24.199,43.288     c-7.146-7.931-18.011-41.253-16.378-53.262S207.428,441.577,207.428,441.577z" fill="#E17B8D" data-original="#e17b8d"></path>
			<path d="M197.978,503.294c-0.225,0-0.452-0.069-0.647-0.213c-8.178-6.044-13.813-47.917-14.049-49.697     c-0.079-0.597,0.341-1.145,0.937-1.224c0.603-0.074,1.145,0.34,1.224,0.937c1.573,11.868,7.01,43.668,13.185,48.23     c0.483,0.359,0.586,1.041,0.229,1.525C198.642,503.141,198.312,503.294,197.978,503.294z" fill="#000000" data-original="#000000"></path>
			<path style="" d="M208.062,492.703c-0.394,0-0.773-0.213-0.967-0.585c-0.098-0.188-9.655-18.929,3.156-30.181     c0.453-0.397,1.142-0.352,1.538,0.099c0.398,0.452,0.353,1.141-0.099,1.538c-11.541,10.137-2.752,27.362-2.662,27.535     c0.278,0.534,0.071,1.192-0.462,1.471C208.404,492.664,208.231,492.703,208.062,492.703z" fill="#241726" data-original="#241726"></path>
			<path style="" d="M214.328,481.172c-0.377,0-0.743-0.196-0.945-0.545c-0.072-0.129-7.508-12.833-14.64-12.345     c-0.613,0.035-1.121-0.413-1.162-1.013c-0.04-0.601,0.413-1.121,1.013-1.162c8.483-0.559,16.347,12.858,16.677,13.431     c0.301,0.522,0.121,1.188-0.399,1.489C214.7,481.125,214.513,481.172,214.328,481.172z" fill="#241726" data-original="#241726"></path>
		</g>
		<path style="" d="M267.63,332.881c0,0-58.936,89.166-81.377,94.092c-22.442,4.926-124.951-20.561-115.799-51.739    s15.721-65.552,25.837-64.479s51.911,47.884,63.559,34.507c11.648-13.377,40.178-66.639,62.007-65.784    S278.446,313.57,267.63,332.881z" fill="#52AFA6" data-original="#52afa6"></path>
		<path style="" d="M305.774,291.466c0,0,59.739,99.071,47.954,118.794c-11.785,19.724-112.909,100.329-129.353,72.304    s-36.986-56.358-29.275-62.992c7.711-6.634,75.385-14.549,73.619-32.198c-1.766-17.65-48.271-80.59-32.696-95.907    S299.116,270.358,305.774,291.466z" fill="#52AFA6" data-original="#52afa6"></path>
		<path style="" d="M167.363,87.663c0,0,5.994-14.713,23.977-16.893s21.252,10.899,35.42,13.078    c14.168,2.18-1.635,20.707-27.791,19.072C172.812,101.286,167.363,87.663,167.363,87.663z" fill="#E7BB00" data-original="#e7bb00"></path>
		<path style="" d="M176.627,93.657c0,0,15.803,49.043,2.18,65.391c0,0-27.791,2.18-33.786-23.977    C139.027,108.915,176.627,93.657,176.627,93.657z" fill="#E7BB00" data-original="#e7bb00"></path>
		<path style="" d="M213.137,95.837c-0.305,0-0.61-0.128-0.826-0.378c-12.871-14.932-31.117-5.092-31.886-4.663    c-0.529,0.293-1.189,0.102-1.482-0.426c-0.292-0.526-0.102-1.189,0.424-1.48c0.203-0.113,20.554-11.141,34.595,5.145    c0.393,0.457,0.342,1.144-0.114,1.538C213.642,95.75,213.389,95.837,213.137,95.837z" fill="#241726" data-original="#241726"></path>
		<path style="" d="M170.086,144.881c-0.212,0-0.426-0.062-0.614-0.191c-0.497-0.34-0.624-1.017-0.284-1.515    c13.517-19.756-2.995-37.694-3.164-37.872c-0.412-0.438-0.392-1.128,0.047-1.541c0.437-0.413,1.126-0.393,1.541,0.047    c0.18,0.192,17.871,19.411,3.375,40.597C170.776,144.714,170.434,144.881,170.086,144.881z" fill="#241726" data-original="#241726"></path>
		<path style="" d="M122.134,158.504c-0.601,0-1.089-0.487-1.09-1.089c0-0.602,0.487-1.09,1.089-1.091    c0.194,0,19.423-0.199,24.027-15.037c1.825-5.882,1.231-12.274,0.657-18.455c-0.915-9.837-1.778-19.13,8.814-22.051    c0.576-0.153,1.18,0.18,1.34,0.761c0.161,0.58-0.181,1.18-0.761,1.34c-8.832,2.436-8.122,10.077-7.222,19.748    c0.567,6.096,1.209,13.006-0.745,19.304C143.158,158.314,122.344,158.504,122.134,158.504z" fill="#241726" data-original="#241726"></path>
		<path style="" d="M128.694,180.859c-2.006,0-3.551-0.299-4.607-0.903c-1.091-0.624-1.334-1.381-1.383-1.599    c-0.13-0.588,0.241-1.17,0.828-1.301c0.546-0.113,1.089,0.191,1.267,0.708c0.163,0.205,3.013,3.156,21.52-2.86    c20.479-6.656,15.328-24.058,15.099-24.794c-0.179-0.575,0.142-1.186,0.715-1.366c0.575-0.176,1.182,0.139,1.364,0.713    c0.063,0.201,6.057,20.187-16.506,27.52C139.067,179.554,132.879,180.859,128.694,180.859z" fill="#241726" data-original="#241726"></path>
		<path style="" d="M157.638,198.741c-3.453,0-6.023-0.432-6.265-0.474c-0.593-0.103-0.99-0.667-0.888-1.26    c0.103-0.593,0.665-0.989,1.26-0.888c0.13,0.021,13.065,2.182,19.779-3.47c2.662-2.24,4.011-5.479,4.011-9.625    c0-0.602,0.487-1.09,1.09-1.09s1.09,0.487,1.09,1.09c0,4.821-1.612,8.622-4.793,11.297    C168.612,197.948,162.316,198.741,157.638,198.741z" fill="#241726" data-original="#241726"></path>
		<path style="" d="M190.976,198.102c0,0,72.695-8.302,75.563-15.621c2.868-7.319,16.217-49.583,18.528-51.223    c5.857-4.157,44.34,9.204,45.774,13.078s-11.53,77.192-22.524,85.372s-92.051,24.817-100.63,24.34    C181.531,252.595,175.681,207.573,190.976,198.102z" fill="#B1739A" data-original="#b1739a"></path>
		<path style="" d="M289.787,52.743c0,0,54.329-16.377,56.528-10.872s29.719,80.411,21.717,81.888    c-8.002,1.477-48.185,20.716-54.34,12.986C307.537,129.016,283.192,55.438,289.787,52.743z" fill="#E17B8D" data-original="#e17b8d"></path>
		<path style="" d="M371.118,98.15c0,0-7.56-10.396-18.388-8.108c-10.828,2.288,12.122,13.528,12.122,13.528    s-16.537-9.962-14.822-3.694s10.694,9.539,10.694,9.539s-7.844-8.971-8.979-3.271c-1.136,5.701,8.278,17.948,16.971,18.939    C377.408,126.074,378.104,103.987,371.118,98.15z" fill="#E47947" data-original="#e47947"></path>
		<path style="" d="M295.594,117.526c0,0-0.78-12.831,9.03-17.953c9.81-5.122-0.748,18.149-0.748,18.149    s6.422-18.206,9.087-12.279c2.664,5.927-2.184,14.163-2.184,14.163s0.346-11.912,4.848-8.236    c4.503,3.676,5.03,19.114-1.047,25.408S293.916,126.474,295.594,117.526z" fill="#E47947" data-original="#e47947"></path>
		<path style="" d="M197.516,230.071c0,0,3.633,21.071-5.086,62.485c-3.595,17.078,103.173,8.719,112.618,5.086    s4.359-79.923-5.813-87.915S217.133,209,197.516,230.071z" fill="#B1739A" data-original="#b1739a"></path>
		<path style="" d="M366.778,106.153c-0.37,0-0.731-0.188-0.936-0.528c-2.115-3.52-9.562-6.712-12.252-7.644    c-0.569-0.198-0.871-0.818-0.674-1.387c0.197-0.569,0.817-0.868,1.387-0.674c0.426,0.148,10.456,3.67,13.408,8.58    c0.31,0.516,0.143,1.186-0.373,1.496C367.162,106.103,366.969,106.153,366.778,106.153z" fill="#241726" data-original="#241726"></path>
		<path style="" d="M365.001,113.209c-0.299,0-0.596-0.122-0.812-0.363c-1.881-2.099-10.399-6.806-13.522-8.443    c-0.533-0.279-0.74-0.938-0.46-1.471c0.28-0.532,0.939-0.742,1.471-0.46c0.473,0.248,11.607,6.1,14.135,8.92    c0.401,0.448,0.364,1.137-0.085,1.539C365.521,113.117,365.261,113.209,365.001,113.209z" fill="#241726" data-original="#241726"></path>
		<path style="" d="M304.089,117.743c-0.433,0-0.843-0.261-1.013-0.688c-2.923-7.369,2.991-14.294,3.244-14.585    c0.395-0.452,1.08-0.501,1.536-0.107c0.454,0.394,0.503,1.081,0.111,1.537c-0.053,0.062-5.294,6.227-2.864,12.351    c0.221,0.56-0.052,1.193-0.611,1.416C304.359,117.718,304.223,117.743,304.089,117.743z" fill="#241726" data-original="#241726"></path>
		<path style="" d="M310.008,125.219c-0.453,0-0.877-0.285-1.031-0.739c-2.759-8.098,2.996-13.987,3.242-14.234    c0.425-0.425,1.112-0.425,1.539-0.002c0.426,0.424,0.428,1.113,0.005,1.541c-0.206,0.209-5.036,5.2-2.724,11.993    c0.195,0.569-0.111,1.189-0.68,1.383C310.244,125.201,310.124,125.219,310.008,125.219z" fill="#241726" data-original="#241726"></path>
		<path style="" d="M221.855,249.689c-0.556,0-1.03-0.423-1.083-0.987c-0.057-0.599,0.382-1.131,0.981-1.188    c22.069-2.107,80.599-9.898,86.333-20.505c7.11-13.152,14.713-47.684,14.79-48.031c0.128-0.59,0.706-0.964,1.297-0.831    c0.587,0.129,0.96,0.709,0.831,1.297c-0.313,1.43-7.745,35.18-15,48.602c-3.181,5.884-19.026,11.312-47.094,16.132    c-20.689,3.554-40.75,5.487-40.95,5.506C221.924,249.688,221.889,249.689,221.855,249.689z" fill="#241726" data-original="#241726"></path>
		<circle style="" cx="302.379" cy="63.6" r="5.903" fill="#1A1F36" data-original="#1a1f36"></circle>
		<path style="" d="M255.124,351.525c-0.451,0-0.86-0.122-1.205-0.368c-2.257-1.61-3.985-19.7-4.814-30.34    c-0.047-0.6,0.402-1.125,1.002-1.172c0.601-0.045,1.125,0.401,1.172,1.002c1.014,13.015,2.778,27.345,3.976,28.797    c0-0.073,0.888-0.261,2.158-1.636c3.946-4.271,6.707-14.371,2.624-29.908c-0.153-0.582,0.195-1.178,0.777-1.33    c0.581-0.155,1.177,0.195,1.33,0.777c5.283,20.095-0.454,30.392-4.679,33.309C256.631,351.231,255.825,351.525,255.124,351.525z" fill="#241726" data-original="#241726"></path>
		<path style="" d="M160.178,364.501c-0.173,0-0.344-0.005-0.516-0.017c-16.533-1.103-57.761-37.944-59.508-39.512    c-0.448-0.402-0.485-1.091-0.083-1.539c0.404-0.447,1.092-0.485,1.539-0.083c0.423,0.379,42.41,37.905,58.197,38.958    c0.134,0.01,0.269,0.014,0.404,0.014c12.841,0,33.925-39.554,41.038-54.965c0.253-0.545,0.901-0.783,1.446-0.533    c0.547,0.252,0.785,0.9,0.533,1.446C202.158,310.589,177.079,364.501,160.178,364.501z" fill="#FBFFFF" data-original="#fbffff"></path>
		<path style="" d="M203.327,425.518c-0.524,0-0.986-0.378-1.074-0.911c-0.099-0.594,0.302-1.155,0.896-1.254    c10.287-1.715,78.388-21.247,76.481-33.634c-2.118-13.766-17.116-36.39-17.267-36.617c-0.334-0.501-0.199-1.177,0.302-1.511    c0.502-0.334,1.176-0.2,1.511,0.302c0.629,0.943,15.417,23.251,17.608,37.494c1.024,6.656-10.793,14.354-36.126,23.533    c-18.641,6.754-38.62,11.995-42.152,12.583C203.446,425.514,203.387,425.518,203.327,425.518z" fill="#FBFFFF" data-original="#fbffff"></path>
		<path style="" d="M240.384,477.831c-0.373,0-0.735-0.192-0.94-0.535c-1.161-1.965-28.464-48.279-30.652-61.408    c-0.099-0.594,0.302-1.155,0.896-1.254c0.593-0.11,1.156,0.303,1.254,0.896c2.122,12.73,30.097,60.178,30.38,60.656    c0.305,0.518,0.134,1.187-0.384,1.493C240.763,477.782,240.573,477.831,240.384,477.831z" fill="#241726" data-original="#241726"></path>
		<path style="" d="M81.264,389.553c-0.128,0-0.257-0.022-0.383-0.069c-0.563-0.212-0.848-0.84-0.638-1.404    c2.364-6.301,23.349-61.632,32.363-63.885c0.58-0.148,1.175,0.208,1.321,0.793c0.147,0.583-0.209,1.175-0.793,1.321    c-5.946,1.487-22.078,39.148-30.849,62.538C82.121,389.284,81.705,389.553,81.264,389.553z" fill="#241726" data-original="#241726"></path>
		<path style="" d="M257.882,298.017c-27.569,0-52.432-10.834-52.816-11.004c-0.55-0.245-0.797-0.889-0.553-1.439    c0.245-0.548,0.893-0.794,1.439-0.553c0.146,0.065,14.844,6.528,33.833,9.464c17.429,2.695,42.147,2.881,60.969-11.513    c0.481-0.365,1.162-0.276,1.527,0.203c0.366,0.478,0.275,1.162-0.203,1.527C288.925,294.76,272.997,298.017,257.882,298.017z" fill="#241726" data-original="#241726"></path>
		<path style="" d="M321.191,147.675c-14.879,0-30.6-10.685-31.292-11.16c-0.496-0.342-0.622-1.02-0.281-1.516    c0.344-0.496,1.023-0.62,1.516-0.281c0.172,0.118,17.306,11.759,32.001,10.71c0.602-0.07,1.122,0.409,1.164,1.009    c0.044,0.6-0.409,1.122-1.009,1.164C322.594,147.652,321.893,147.675,321.191,147.675z" fill="#241726" data-original="#241726"></path>
		<path style="" d="M373.03,134.171c-5.457,0-11.24-0.481-13.956-0.74c-0.599-0.056-1.039-0.589-0.981-1.188    c0.056-0.598,0.591-1.06,1.188-0.981c10.742,1.023,22.971,1.022,24.057-0.61c0.332-0.5,1.006-0.636,1.511-0.302    c0.501,0.334,0.636,1.01,0.302,1.511C383.952,133.658,378.666,134.171,373.03,134.171z" fill="#241726" data-original="#241726"></path>
		<path style="" d="M275.259,208.637c-0.258,0-0.516-0.09-0.724-0.276c-10.092-8.97-9.129-25.265-9.083-25.953    c0.04-0.6,0.534-1.072,1.16-1.014c0.6,0.039,1.055,0.558,1.015,1.159c-0.011,0.158-0.93,15.926,8.355,24.18    c0.45,0.399,0.491,1.089,0.09,1.538C275.858,208.514,275.559,208.637,275.259,208.637z" fill="#241726" data-original="#241726"></path>
		<g>
			<path style="" d="M240.383,198.828c-0.294,0-0.586-0.118-0.8-0.35c-0.409-0.443-0.381-1.132,0.061-1.54     c3.204-2.956,9.194-0.613,9.446-0.512c0.558,0.224,0.83,0.856,0.608,1.414s-0.857,0.835-1.416,0.61     c-1.375-0.544-5.341-1.588-7.159,0.088C240.913,198.733,240.648,198.828,240.383,198.828z" fill="#241726" data-original="#241726"></path>
			<path style="" d="M233.688,206.411c-0.294,0-0.586-0.118-0.8-0.35c-0.409-0.443-0.381-1.132,0.061-1.54     c3.2-2.959,9.19-0.614,9.445-0.511c0.559,0.224,0.83,0.857,0.608,1.416c-0.224,0.559-0.855,0.832-1.416,0.609     c-1.373-0.543-5.339-1.59-7.158,0.087C234.218,206.315,233.953,206.411,233.688,206.411z" fill="#241726" data-original="#241726"></path>
			<path style="" d="M220.464,208.094c-0.258,0-0.516-0.09-0.724-0.275c-0.45-0.399-0.491-1.088-0.092-1.539     c2.926-3.297,9.034-1.557,9.293-1.482c0.577,0.169,0.907,0.774,0.74,1.351c-0.169,0.577-0.776,0.912-1.351,0.742     c-1.397-0.403-5.386-1.044-7.051,0.837C221.064,207.971,220.764,208.094,220.464,208.094z" fill="#241726" data-original="#241726"></path>
			<path style="" d="M225.723,200.961c-0.214,0-0.429-0.063-0.618-0.193c-0.495-0.343-0.619-1.022-0.278-1.517     c2.584-3.741,8.686-2.872,8.942-2.831c0.595,0.089,1.004,0.644,0.915,1.239c-0.088,0.595-0.641,1.003-1.238,0.917     c-0.048-0.01-5.015-0.707-6.825,1.914C226.41,200.797,226.069,200.961,225.723,200.961z" fill="#241726" data-original="#241726"></path>
			<path style="" d="M212.287,204.736c-0.214,0-0.429-0.063-0.618-0.193c-0.495-0.343-0.619-1.022-0.278-1.517     c2.583-3.74,8.685-2.874,8.942-2.831c0.595,0.089,1.004,0.644,0.915,1.239c-0.088,0.596-0.632,1.003-1.238,0.917     c-0.05-0.009-5.017-0.706-6.825,1.914C212.974,204.572,212.633,204.736,212.287,204.736z" fill="#241726" data-original="#241726"></path>
		</g>
		<g>
			<path style="" d="M145.949,411.509c-1.56,0-3.189-0.352-4.414-1.478c-0.443-0.408-0.473-1.097-0.065-1.54     c0.41-0.444,1.097-0.47,1.54-0.065c1.833,1.685,5.789,0.623,7.158,0.072c0.553-0.221,1.192,0.045,1.418,0.605     c0.225,0.559-0.046,1.193-0.605,1.418C150.825,410.583,148.477,411.509,145.949,411.509z" fill="#241726" data-original="#241726"></path>
			<path style="" d="M153.548,404.975c-1.56,0-3.189-0.352-4.414-1.478c-0.443-0.408-0.473-1.097-0.065-1.54     c0.41-0.443,1.099-0.471,1.54-0.065c1.833,1.686,5.788,0.624,7.158,0.072c0.555-0.22,1.192,0.045,1.418,0.605     c0.225,0.559-0.046,1.193-0.605,1.418C158.424,404.049,156.076,404.975,153.548,404.975z" fill="#241726" data-original="#241726"></path>
			<path style="" d="M161.23,412.541c-1.56,0-3.189-0.352-4.414-1.478c-0.443-0.408-0.473-1.097-0.065-1.54     c0.41-0.444,1.098-0.47,1.54-0.065c1.833,1.685,5.789,0.624,7.158,0.072c0.552-0.221,1.192,0.045,1.418,0.605     c0.225,0.559-0.046,1.193-0.605,1.418C166.106,411.615,163.758,412.541,161.23,412.541z" fill="#241726" data-original="#241726"></path>
			<path style="" d="M139.235,403.941c-1.56,0-3.189-0.352-4.413-1.477c-0.443-0.408-0.473-1.097-0.065-1.54     c0.41-0.445,1.097-0.471,1.54-0.065c1.831,1.683,5.787,0.622,7.158,0.071c0.556-0.224,1.191,0.044,1.418,0.605     c0.225,0.559-0.046,1.193-0.605,1.418C144.112,403.016,141.763,403.941,139.235,403.941z" fill="#241726" data-original="#241726"></path>
			<path style="" d="M126.926,402.728c-1.87,0-4.003-0.418-5.409-1.996c-0.4-0.449-0.36-1.138,0.089-1.539     c0.446-0.399,1.137-0.36,1.539,0.089c1.988,2.233,6.999,0.834,7.05,0.821c0.58-0.17,1.185,0.159,1.354,0.737     c0.17,0.578-0.16,1.184-0.736,1.354C130.678,402.233,128.958,402.728,126.926,402.728z" fill="#241726" data-original="#241726"></path>
			<path style="" d="M133.822,410.68c-2.074,0-5.375-0.431-7.107-2.928c-0.344-0.495-0.22-1.174,0.274-1.517     c0.494-0.345,1.174-0.219,1.517,0.274c1.815,2.615,6.781,1.902,6.831,1.898c0.586-0.095,1.149,0.319,1.24,0.914     c0.089,0.594-0.318,1.149-0.912,1.24C135.577,410.574,134.85,410.68,133.822,410.68z" fill="#241726" data-original="#241726"></path>
			<path style="" d="M120.377,406.935c-2.074,0-5.374-0.431-7.106-2.928c-0.344-0.495-0.22-1.174,0.274-1.517     c0.494-0.345,1.173-0.22,1.517,0.274c1.797,2.586,6.78,1.903,6.828,1.898c0.599-0.096,1.152,0.318,1.242,0.912     c0.092,0.595-0.317,1.152-0.912,1.242C122.132,406.83,121.405,406.935,120.377,406.935z" fill="#241726" data-original="#241726"></path>
		</g>
		<g>
			<path style="" d="M309.149,430.631c-0.368,0-0.741-0.038-1.115-0.125c-0.586-0.134-0.954-0.718-0.82-1.305     c0.133-0.589,0.716-0.957,1.305-0.82c2.432,0.56,5.335-2.328,6.252-3.486c0.374-0.469,1.06-0.551,1.532-0.178     c0.471,0.374,0.551,1.059,0.178,1.532C316.326,426.445,312.963,430.631,309.149,430.631z" fill="#241726" data-original="#241726"></path>
			<path style="" d="M312.511,421.19c-0.368,0-0.741-0.038-1.115-0.125c-0.586-0.134-0.954-0.718-0.82-1.305     c0.133-0.587,0.716-0.96,1.305-0.82c2.437,0.558,5.336-2.328,6.252-3.486c0.374-0.469,1.06-0.55,1.532-0.178     c0.471,0.374,0.551,1.059,0.178,1.532C319.687,417.004,316.324,421.19,312.511,421.19z" fill="#241726" data-original="#241726"></path>
			<path style="" d="M322.932,423.954c-0.368,0-0.741-0.038-1.115-0.125c-0.586-0.134-0.954-0.718-0.82-1.305     c0.134-0.589,0.719-0.956,1.305-0.82c2.433,0.556,5.336-2.327,6.253-3.486c0.374-0.469,1.06-0.551,1.532-0.178     c0.471,0.374,0.551,1.06,0.178,1.532C330.11,419.768,326.746,423.954,322.932,423.954z" fill="#241726" data-original="#241726"></path>
			<path style="" d="M299.568,427.386c-0.368,0-0.742-0.038-1.115-0.125c-0.588-0.134-0.954-0.718-0.82-1.305     c0.133-0.589,0.716-0.959,1.305-0.82c2.444,0.551,5.334-2.328,6.252-3.486c0.375-0.47,1.06-0.549,1.532-0.178     c0.471,0.374,0.551,1.06,0.178,1.532C306.745,423.2,303.381,427.386,299.568,427.386z" fill="#241726" data-original="#241726"></path>
			<path style="" d="M287.715,432.621c-0.557,0-1.119-0.081-1.676-0.268c-0.57-0.193-0.877-0.811-0.685-1.381     c0.192-0.569,0.806-0.875,1.381-0.685c2.374,0.8,5.522-1.737,6.531-2.782c0.416-0.433,1.106-0.447,1.541-0.029     c0.433,0.417,0.447,1.106,0.031,1.539C294.676,429.184,291.324,432.621,287.715,432.621z" fill="#241726" data-original="#241726"></path>
			<path style="" d="M296.595,436.434c-0.856,0-1.725-0.161-2.563-0.561c-0.544-0.26-0.774-0.91-0.514-1.453     c0.259-0.543,0.909-0.777,1.453-0.514c2.842,1.357,6.831-1.704,6.871-1.736c0.469-0.377,1.155-0.296,1.53,0.177     c0.375,0.471,0.295,1.157-0.177,1.53C303.033,434.007,299.924,436.434,296.595,436.434z" fill="#241726" data-original="#241726"></path>
			<path style="" d="M283.062,439.846c-0.856,0-1.725-0.161-2.563-0.561c-0.544-0.26-0.774-0.91-0.514-1.453     c0.259-0.544,0.909-0.775,1.453-0.514c2.839,1.358,6.832-1.704,6.871-1.736c0.469-0.377,1.155-0.297,1.53,0.177     c0.375,0.471,0.295,1.157-0.177,1.53C289.5,437.419,286.391,439.846,283.062,439.846z" fill="#241726" data-original="#241726"></path>
		</g>
	</g>
	<path style="" d="M423.727,166.923c-0.806,0-1.569,0-3.692-8.457c-7.168-1.38-7.796-2.223-8.006-2.506   c-0.202-0.271-0.289-0.77-0.198-1.094c0.13-0.46,0.429-1.524,8.62-4.826c2.941-7.667,3.937-7.667,4.601-7.667   c0.344,0,0.817,0.247,1.023,0.523c0.528,0.708,1.005,2.544,1.727,5.483c0.226,0.919,0.498,2.029,0.656,2.517   c0.43,0.192,1.378,0.531,2.166,0.813c4.21,1.51,5.296,2.024,5.493,3.029c0.074,0.377-0.118,0.927-0.403,1.184   c-0.855,0.766-4.925,2.278-7.06,3.038c-3.468,7.89-4.208,7.928-4.864,7.963C423.77,166.923,423.746,166.923,423.727,166.923z    M414.802,155.022c1.433,0.414,4.043,1.007,6.322,1.432c0.42,0.079,0.756,0.396,0.858,0.811c0.582,2.361,1.344,5.049,1.892,6.583   c0.794-1.428,1.997-3.958,2.972-6.193c0.121-0.278,0.352-0.493,0.638-0.593c1.947-0.684,4.145-1.526,5.514-2.125   c-0.958-0.403-2.264-0.872-3.109-1.175c-2.405-0.862-2.859-1.048-3.168-1.464c-0.27-0.362-0.437-0.967-1.035-3.397   c-0.225-0.915-0.57-2.319-0.877-3.37c-0.715,1.363-1.714,3.68-2.489,5.731c-0.109,0.285-0.332,0.513-0.615,0.626   C419.175,152.896,416.305,154.182,414.802,155.022z" fill="#241726" data-original="#241726"></path>
	<path style="" d="M149.083,299.886c-0.806,0-1.569,0-3.692-8.457c-7.168-1.38-7.796-2.223-8.006-2.506   c-0.202-0.271-0.29-0.77-0.198-1.094c0.13-0.46,0.429-1.524,8.62-4.826c2.941-7.667,3.937-7.667,4.601-7.667   c0.344,0,0.817,0.247,1.023,0.523c0.528,0.708,1.005,2.544,1.727,5.483c0.226,0.918,0.498,2.029,0.656,2.517   c0.43,0.192,1.378,0.531,2.166,0.813c4.21,1.51,5.296,2.024,5.493,3.029c0.075,0.377-0.118,0.927-0.403,1.184   c-0.855,0.766-4.925,2.278-7.06,3.038c-3.468,7.89-4.208,7.928-4.864,7.963C149.127,299.886,149.102,299.886,149.083,299.886z    M140.158,287.985c1.433,0.414,4.043,1.007,6.322,1.431c0.42,0.079,0.756,0.396,0.858,0.811c0.582,2.361,1.344,5.049,1.892,6.583   c0.794-1.428,1.997-3.958,2.972-6.193c0.121-0.278,0.352-0.493,0.638-0.593c1.947-0.684,4.145-1.526,5.514-2.125   c-0.958-0.403-2.264-0.872-3.109-1.175c-2.405-0.862-2.859-1.048-3.168-1.464c-0.27-0.362-0.437-0.967-1.035-3.397   c-0.225-0.915-0.57-2.319-0.877-3.37c-0.715,1.363-1.714,3.68-2.489,5.731c-0.109,0.285-0.332,0.513-0.615,0.626   C144.531,285.858,141.662,287.144,140.158,287.985z" fill="#241726" data-original="#241726"></path>
	<g>
		<path style="" d="M410.079,9.081c0,0,71.119-19.963,88.981,2.62c17.862,22.583,1.977,70.972-6.241,74.373    s-68.652,4.161-68.652,4.161s-19.242,15.954-21.324,10.402c-1.56-4.161,3.572-15.767,0-20.283S388.016,12.215,410.079,9.081z" fill="#DC5B44" data-original="#dc5b44"></path>
		<g>
			<circle style="" cx="432.901" cy="71.95" r="4.652" fill="#FBFFFF" data-original="#fbffff"></circle>
			<circle style="" cx="478.293" cy="71.95" r="4.652" fill="#FBFFFF" data-original="#fbffff"></circle>
			<g>
				<path style="" d="M448.086,66.624c-9.473,0-16.355-0.688-16.932-2.627c-1.048-3.518-7.583-35.746-8.946-42.481      l-11.445,3.493c-0.579,0.179-1.186-0.149-1.36-0.724c-0.177-0.576,0.148-1.185,0.724-1.36l12.593-3.844      c0.296-0.089,0.613-0.051,0.876,0.105c0.265,0.158,0.45,0.419,0.511,0.721c0.08,0.397,8.017,39.715,9.135,43.469      c1.919,1.709,25.472,1.18,47.084-0.419c0.616-0.045,1.123,0.407,1.168,1.006c0.045,0.6-0.406,1.123-1.006,1.168      C469.566,65.939,457.536,66.624,448.086,66.624z" fill="#FBFCFF" data-original="#fbfcff"></path>
				<path style="" d="M442.045,56.337c-3.504,0-7.318-0.013-11.487-0.039c-0.601-0.004-1.087-0.495-1.082-1.097      c0.004-0.599,0.491-1.082,1.09-1.082c0.002,0,0.004,0,0.007,0c16.93,0.115,44.286-0.119,48.132-1.179      c0.195-0.998,0.666-3.094,1.428-6.469c1.465-6.487,4.402-19.5,4.603-22.611c-5.114-0.548-38.613,1.752-59.502,3.408      c-0.606,0.039-1.125-0.401-1.173-1c-0.047-0.6,0.4-1.125,1-1.173c60.652-4.803,61.311-3.373,61.702-2.519      c0.471,1.031-0.05,4.646-4.504,24.376c-0.763,3.377-1.421,6.293-1.486,6.803C480.641,54.799,480.439,56.337,442.045,56.337z" fill="#FBFCFF" data-original="#fbfcff"></path>
				<path style="" d="M443.472,55.667c-0.537,0-1.005-0.396-1.079-0.943l-3.946-29.028      c-0.081-0.596,0.337-1.145,0.933-1.227c0.598-0.067,1.146,0.337,1.227,0.933l3.946,29.028c0.081,0.596-0.337,1.145-0.933,1.227      C443.57,55.664,443.521,55.667,443.472,55.667z" fill="#FBFCFF" data-original="#fbfcff"></path>
				<path style="" d="M469.13,55.036c-0.02,0-0.04,0-0.061-0.002c-0.601-0.032-1.061-0.546-1.028-1.147l1.692-30.92      c0.032-0.601,0.537-1.092,1.147-1.028c0.601,0.032,1.061,0.546,1.028,1.147l-1.692,30.92      C470.186,54.586,469.705,55.036,469.13,55.036z" fill="#FBFCFF" data-original="#fbfcff"></path>
				<path style="" d="M456.724,55.983c-0.565,0-1.043-0.436-1.086-1.009l-2.256-30.29      c-0.045-0.6,0.405-1.123,1.006-1.168c0.612-0.063,1.123,0.407,1.168,1.006l2.256,30.29c0.045,0.6-0.405,1.123-1.006,1.168      C456.778,55.982,456.75,55.983,456.724,55.983z" fill="#FBFCFF" data-original="#fbfcff"></path>
				<path style="" d="M426.838,37.682c-0.582,0-1.065-0.46-1.088-1.047c-0.023-0.601,0.445-1.108,1.046-1.131      l56.387-2.208c0.607-0.046,1.109,0.444,1.131,1.046c0.023,0.601-0.445,1.108-1.046,1.131l-56.387,2.208      C426.867,37.682,426.853,37.682,426.838,37.682z" fill="#FBFCFF" data-original="#fbfcff"></path>
				<path style="" d="M428.249,47.779c-0.593,0-1.079-0.476-1.09-1.071c-0.011-0.601,0.468-1.098,1.071-1.109      l53.286-0.947c0.597,0.021,1.098,0.468,1.109,1.071c0.011,0.601-0.468,1.098-1.071,1.109l-53.286,0.947      C428.262,47.779,428.255,47.779,428.249,47.779z" fill="#FBFCFF" data-original="#fbfcff"></path>
			</g>
		</g>
	</g>
	<g>
		<path style="" d="M49.021,51.977c-0.099,0-0.327-0.031-0.423-0.057C45.509,51.059,37.237,14.9,35.95,7.961    c-1.221-6.577-0.877-7.212-0.215-7.702V0.258l0,0c0.002-0.001,0.003-0.002,0.003-0.002c0.059-0.043,0.119-0.079,0.181-0.107    c0.163-0.085,0.343-0.136,0.516-0.14C36.492,0.003,36.546,0,36.578,0c3.655,0,43.095,21.611,45.577,26.378    c0.421,0.81,0.164,1.39-0.028,1.662c-2.07,2.957-11.781,3.586-13.706,3.681c-0.304,0.016-0.6-0.098-0.817-0.311    c-8.57-8.398-21.484-20.808-27.821-26.393c4.372,6.67,13.892,19.93,20.382,28.776c0.237,0.324,0.278,0.751,0.104,1.114    C56.558,42.694,51.596,51.976,49.021,51.977z M37.757,5.838c1.908,11.127,9.215,39.557,11.479,43.75    c1.659-1.428,5.642-8.51,8.784-15.03C46.26,18.515,40.515,10.215,37.757,5.838z M42.147,4.243    c6.441,5.657,17.214,16.041,26.64,25.275c4.014-0.244,9.605-1.103,11.24-2.404C77.481,24.277,53.677,9.702,42.147,4.243z" fill="#241726" data-original="#241726"></path>
		<path style="" d="M61.498,48.066c-0.181,0-0.381-0.029-0.599-0.1c-2.062-0.679-4.74-5.798-5.512-7.351    c-0.268-0.54-0.048-1.193,0.491-1.461c0.543-0.27,1.193-0.049,1.461,0.491c1.419,2.852,3.218,5.563,4.056,6.151    c0.983-1.338,3.71-8.719,5.753-15.136c0.182-0.574,0.792-0.892,1.37-0.708c0.573,0.183,0.89,0.796,0.708,1.37    c-2.255,7.083-5.293,15.707-6.965,16.562C62.076,47.977,61.817,48.066,61.498,48.066z" fill="#241726" data-original="#241726"></path>
	</g>
	<path style="" d="M266.753,512c-0.028,0-0.056,0-0.085-0.004c-0.599-0.045-1.048-0.568-1.003-1.169   c0.103-1.343,0.327-2.882,0.646-4.453c0.119-0.59,0.699-0.964,1.285-0.85c0.59,0.119,0.971,0.695,0.85,1.285   c-0.301,1.484-0.511,2.931-0.608,4.185C267.795,511.566,267.317,512,266.753,512z M314.462,504.324   c-0.56,0-1.104-0.032-1.633-0.095c-0.598-0.07-1.025-0.612-0.955-1.21s0.614-1.023,1.21-0.955c1.24,0.145,2.598,0.089,3.993-0.184   c0.592-0.116,1.163,0.27,1.279,0.86c0.116,0.591-0.269,1.163-0.86,1.279C316.465,504.222,315.444,504.324,314.462,504.324z    M268.451,503.455c-0.105,0-0.212-0.015-0.318-0.048c-0.576-0.176-0.9-0.784-0.724-1.36c0.444-1.455,0.953-2.87,1.511-4.208   c0.231-0.558,0.872-0.817,1.426-0.585c0.556,0.232,0.817,0.871,0.585,1.426c-0.531,1.271-1.015,2.618-1.439,4.004   C269.351,503.152,268.918,503.455,268.451,503.455z M308.813,502.994c-0.162,0-0.326-0.036-0.481-0.113   c-1.289-0.635-2.541-1.477-3.827-2.575c-0.459-0.39-0.513-1.078-0.122-1.536c0.388-0.459,1.078-0.513,1.536-0.122   c1.148,0.978,2.253,1.723,3.378,2.279c0.54,0.266,0.762,0.92,0.495,1.459C309.602,502.771,309.215,502.994,308.813,502.994z    M321.439,502.729c-0.423,0-0.825-0.248-1.002-0.661c-0.237-0.553,0.019-1.194,0.573-1.43c1.29-0.552,2.519-1.215,3.653-1.971   c0.499-0.335,1.176-0.199,1.511,0.302c0.334,0.501,0.198,1.178-0.302,1.511c-1.245,0.829-2.592,1.557-4.004,2.161   C321.729,502.701,321.583,502.729,321.439,502.729z M328.64,497.915c-0.281,0-0.561-0.107-0.774-0.322   c-0.424-0.428-0.42-1.118,0.006-1.541c0.976-0.967,1.871-2.039,2.659-3.184c0.343-0.496,1.022-0.62,1.516-0.281   c0.496,0.342,0.622,1.02,0.281,1.516c-0.865,1.258-1.848,2.435-2.92,3.497C329.195,497.81,328.918,497.915,328.64,497.915z    M302.113,497.502c-0.297,0-0.594-0.121-0.809-0.359c-0.934-1.035-1.84-2.114-2.738-3.187c-0.387-0.462-0.392-1.226,0.069-1.613   c0.462-0.386,1.085-0.406,1.471,0.057c1.012,1.207,1.9,2.267,2.816,3.28c0.403,0.447,0.368,1.136-0.078,1.54   C302.636,497.409,302.374,497.502,302.113,497.502z M271.835,495.425c-0.182,0-0.366-0.046-0.535-0.142   c-0.525-0.296-0.709-0.961-0.412-1.485c0.777-1.373,1.622-2.638,2.514-3.762c0.374-0.473,1.061-0.552,1.53-0.177   c0.471,0.374,0.551,1.059,0.177,1.53c-0.821,1.036-1.603,2.207-2.324,3.481C272.584,495.226,272.215,495.425,271.835,495.425z    M296.41,490.897c-0.293,0-0.584-0.117-0.799-0.349c-1.12-1.208-2.087-2.116-3.045-2.858c-0.476-0.369-0.563-1.054-0.195-1.529   c0.368-0.476,1.053-0.562,1.529-0.195c1.055,0.817,2.106,1.803,3.309,3.1c0.41,0.442,0.383,1.131-0.059,1.54   C296.941,490.801,296.675,490.897,296.41,490.897z M333.568,490.783c-0.15,0-0.303-0.031-0.45-0.098   c-0.548-0.249-0.79-0.895-0.541-1.443c0.569-1.252,1.044-2.575,1.412-3.933c0.156-0.582,0.755-0.932,1.337-0.766   c0.581,0.158,0.924,0.756,0.766,1.337c-0.398,1.471-0.913,2.906-1.532,4.265C334.379,490.546,333.983,490.783,333.568,490.783z    M354.573,489.116c-0.324,0-0.645-0.004-0.965-0.012c-0.602-0.015-1.078-0.514-1.064-1.115c0.015-0.602,0.475-1.091,1.115-1.064   c0.727,0.017,1.465,0.016,2.211-0.011c0.666-0.024,1.319-0.084,1.955-0.176c0.597-0.096,1.148,0.326,1.235,0.922   c0.087,0.596-0.326,1.148-0.922,1.235c-0.713,0.104-1.442,0.17-2.19,0.197C355.485,489.109,355.028,489.116,354.573,489.116z    M349.292,488.738c-0.051,0-0.103-0.003-0.156-0.011c-1.477-0.213-2.956-0.517-4.395-0.905c-0.581-0.156-0.926-0.755-0.77-1.336   c0.158-0.58,0.759-0.923,1.336-0.769c1.356,0.365,2.748,0.651,4.139,0.851c0.596,0.086,1.009,0.639,0.924,1.235   C350.291,488.347,349.825,488.738,349.292,488.738z M277.287,488.683c-0.315,0-0.627-0.135-0.842-0.397   c-0.383-0.464-0.317-1.152,0.148-1.534c1.239-1.022,2.565-1.844,3.941-2.448c0.553-0.242,1.196,0.01,1.436,0.561   c0.242,0.551-0.01,1.194-0.561,1.436c-1.192,0.523-2.346,1.24-3.43,2.133C277.776,488.601,277.531,488.683,277.287,488.683z    M362.178,487.784c-0.433,0-0.843-0.261-1.013-0.688c-0.221-0.56,0.052-1.193,0.611-1.416c1.253-0.497,2.471-1.147,3.622-1.935   c0.498-0.338,1.177-0.211,1.514,0.284c0.34,0.496,0.213,1.175-0.284,1.515c-1.284,0.879-2.646,1.606-4.048,2.163   C362.448,487.759,362.312,487.784,362.178,487.784z M340.895,486.472c-0.137,0-0.276-0.026-0.41-0.08   c-1.405-0.57-2.768-1.229-4.052-1.959c-0.524-0.297-0.707-0.962-0.409-1.486c0.296-0.524,0.96-0.71,1.486-0.409   c1.201,0.682,2.478,1.3,3.794,1.834c0.558,0.227,0.826,0.862,0.6,1.42C341.732,486.216,341.325,486.472,340.895,486.472z    M289.452,485.804c-0.117,0-0.236-0.019-0.353-0.059c-1.243-0.425-2.482-0.575-3.839-0.456c-0.573,0.074-1.128-0.391-1.18-0.991   c-0.052-0.599,0.391-1.128,0.991-1.18c1.658-0.148,3.218,0.046,4.735,0.564c0.569,0.195,0.873,0.815,0.678,1.385   C290.328,485.52,289.906,485.804,289.452,485.804z M369.341,482.93c-0.276,0-0.55-0.103-0.763-0.311   c-0.43-0.421-0.436-1.112-0.016-1.542c0.949-0.969,1.84-2.053,2.646-3.221c0.342-0.496,1.02-0.62,1.516-0.279   s0.62,1.021,0.279,1.516c-0.877,1.271-1.847,2.452-2.882,3.51C369.906,482.821,369.624,482.93,369.341,482.93z M335.844,482.403   c-0.038,0-0.077-0.002-0.116-0.006c-0.598-0.063-1.032-0.599-0.969-1.198c0.095-0.897,0.141-1.774,0.141-2.619   c0-0.529-0.018-1.045-0.053-1.546c-0.04-0.6,0.412-1.121,1.013-1.162c0.594-0.007,1.121,0.412,1.162,1.013   c0.037,0.548,0.057,1.115,0.057,1.695c0,0.93-0.051,1.889-0.153,2.849C336.868,481.986,336.395,482.403,335.844,482.403z    M333.351,482.15c-0.236,0-0.475-0.077-0.675-0.235c-1.278-1.01-2.389-2.078-3.303-3.172c-0.385-0.463-0.322-1.149,0.139-1.536   c0.465-0.383,1.149-0.321,1.536,0.139c0.816,0.98,1.819,1.941,2.979,2.859c0.473,0.372,0.552,1.058,0.179,1.53   C333.992,482.009,333.673,482.15,333.351,482.15z M374.288,475.796c-0.159,0-0.319-0.034-0.473-0.109   c-0.542-0.261-0.77-0.912-0.508-1.455c0.609-1.263,1.124-2.577,1.532-3.903c0.177-0.574,0.785-0.899,1.362-0.722   c0.575,0.177,0.898,0.787,0.722,1.362c-0.44,1.43-0.995,2.846-1.653,4.209C375.084,475.57,374.694,475.796,374.288,475.796z    M328.04,475.389c-0.467,0-0.899-0.302-1.042-0.772c-0.201-0.657-0.302-1.297-0.302-1.904c0-1.254,0.441-2.376,1.274-3.245   c0.416-0.434,1.107-0.45,1.54-0.033c0.435,0.416,0.45,1.106,0.033,1.54c-0.449,0.469-0.667,1.038-0.667,1.738   c0,0.391,0.069,0.817,0.206,1.268c0.176,0.576-0.148,1.185-0.724,1.36C328.252,475.374,328.145,475.389,328.04,475.389z    M335.136,473.773c-0.454,0-0.879-0.286-1.032-0.742c-0.494-1.462-1.174-2.483-1.917-2.874c-0.533-0.28-0.739-0.939-0.458-1.471   s0.937-0.738,1.471-0.458c1.259,0.661,2.286,2.081,2.968,4.106c0.193,0.57-0.114,1.189-0.684,1.38   C335.369,473.755,335.251,473.773,335.136,473.773z M385.986,472.215c-0.024,0-0.05-0.001-0.075-0.002   c-1.5-0.102-3.013-0.354-4.5-0.752c-0.581-0.155-0.926-0.752-0.771-1.335c0.155-0.58,0.759-0.927,1.335-0.771   c1.351,0.361,2.724,0.591,4.083,0.682c0.6,0.042,1.055,0.561,1.014,1.161C387.034,471.774,386.555,472.215,385.986,472.215z    M390.334,472.065c-0.535,0-1.003-0.395-1.078-0.94c-0.083-0.596,0.333-1.147,0.929-1.229c1.354-0.188,2.704-0.518,4.015-0.981   c0.572-0.196,1.19,0.097,1.391,0.665c0.2,0.567-0.098,1.19-0.665,1.391c-1.449,0.511-2.943,0.876-4.44,1.083   C390.434,472.062,390.384,472.065,390.334,472.065z M377.604,470c-0.154,0-0.312-0.033-0.461-0.102   c-1.359-0.636-2.683-1.395-3.935-2.257c-0.495-0.341-0.62-1.02-0.279-1.516c0.341-0.494,1.02-0.622,1.516-0.279   c0.433,0.298,0.877,0.583,1.327,0.855c-0.04-0.14-0.053-0.292-0.033-0.446c0.12-0.909,0.181-1.803,0.181-2.655   c0-0.497-0.021-0.983-0.063-1.457c-0.053-0.599,0.39-1.128,0.99-1.181c0.598-0.051,1.128,0.391,1.181,0.99   c0.048,0.535,0.071,1.086,0.071,1.649c0,0.948-0.067,1.938-0.2,2.941c-0.059,0.448-0.382,0.796-0.792,0.909   c0.317,0.165,0.636,0.324,0.959,0.474c0.545,0.255,0.78,0.905,0.526,1.45C378.407,469.768,378.015,470,377.604,470z    M398.531,469.239c-0.391,0-0.767-0.21-0.963-0.578c-0.283-0.532-0.081-1.192,0.45-1.474c1.286-0.683,2.49-1.426,3.584-2.208   c0.489-0.352,1.17-0.241,1.52,0.251c0.351,0.488,0.238,1.17-0.251,1.52c-1.171,0.84-2.459,1.634-3.828,2.362   C398.878,469.199,398.704,469.239,398.531,469.239z M370.457,465.07c-0.275,0-0.549-0.103-0.761-0.31   c-1.175-1.147-2.165-2.336-2.94-3.532c-0.328-0.506-0.184-1.18,0.321-1.507c0.504-0.328,1.179-0.183,1.507,0.321   c0.688,1.061,1.574,2.123,2.633,3.158c0.431,0.42,0.44,1.111,0.019,1.541C371.023,464.961,370.74,465.07,370.457,465.07z    M405.559,464.145c-0.278,0-0.556-0.105-0.768-0.317c-0.427-0.425-0.429-1.114-0.004-1.541c0.997-1.004,1.873-2.08,2.604-3.2   c0.329-0.504,1.005-0.646,1.508-0.318c0.504,0.329,0.647,1.005,0.318,1.508c-0.812,1.245-1.783,2.438-2.885,3.547   C406.119,464.038,405.839,464.145,405.559,464.145z M375.881,458.932c-0.408,0-0.798-0.229-0.986-0.622   c-0.583-1.227-1.394-2.136-2.412-2.704c-0.526-0.293-0.714-0.957-0.42-1.483c0.292-0.527,0.955-0.715,1.483-0.42   c1.421,0.793,2.537,2.028,3.319,3.671c0.259,0.544,0.027,1.194-0.516,1.453C376.197,458.898,376.037,458.932,375.881,458.932z    M366.115,457.625c-0.581,0-1.059-0.384-1.082-0.967c-0.001-0.015-0.004-0.185-0.004-0.2c0-2.1,1.371-3.489,3.665-3.716   c0.613-0.045,1.133,0.38,1.192,0.977c0.06,0.599-0.378,1.132-0.977,1.192c-1.499,0.148-1.701,0.865-1.701,1.546   c0,0.593-0.473,1.155-1.066,1.168C366.133,457.625,366.123,457.625,366.115,457.625z M410.256,456.885   c-0.123,0-0.25-0.021-0.373-0.066c-0.566-0.205-0.858-0.831-0.651-1.396c0.464-1.276,0.783-2.618,0.947-3.988   c0.072-0.596,0.614-1.016,1.212-0.953c0.598,0.072,1.024,0.615,0.953,1.212c-0.185,1.536-0.543,3.041-1.064,4.473   C411.119,456.61,410.701,456.885,410.256,456.885z M411.304,448.302c-0.555,0-1.029-0.421-1.083-0.984   c-0.231-2.381-0.83-3.951-0.835-3.967c-0.217-0.56,0.061-1.192,0.62-1.409c0.556-0.22,1.189,0.056,1.41,0.617   c0.029,0.073,0.712,1.844,0.974,4.548c0.059,0.599-0.38,1.132-0.979,1.19C411.374,448.3,411.339,448.302,411.304,448.302z" fill="#241726" data-original="#241726"></path>
	<path style="" d="M64.023,179.078c-0.573,0-1.053-0.446-1.087-1.025c-0.036-0.601,0.423-1.118,1.023-1.153   c1.413-0.084,2.816-0.262,4.172-0.531c0.589-0.12,1.163,0.268,1.281,0.858c0.116,0.591-0.267,1.164-0.858,1.281   c-1.453,0.287-2.956,0.478-4.466,0.567C64.067,179.077,64.045,179.078,64.023,179.078z M59.669,179.056   c-0.024,0-0.05-0.001-0.075-0.002c-1.459-0.099-2.956-0.288-4.447-0.563c-0.593-0.109-0.983-0.677-0.875-1.269   c0.109-0.592,0.679-0.991,1.269-0.875c1.411,0.26,2.824,0.439,4.2,0.531c0.6,0.04,1.055,0.561,1.014,1.161   C60.717,178.615,60.238,179.056,59.669,179.056z M51.107,177.501c-0.101,0-0.205-0.014-0.308-0.045l-0.365-0.107   c-0.577-0.173-0.904-0.781-0.73-1.358c0.175-0.575,0.776-0.905,1.358-0.73l0.352,0.105c0.578,0.17,0.908,0.776,0.738,1.353   C52.013,177.193,51.578,177.501,51.107,177.501z M72.542,177.384c-0.449,0-0.871-0.28-1.028-0.728   c-0.2-0.568,0.099-1.19,0.666-1.39c1.321-0.465,2.616-1.028,3.847-1.675c0.533-0.278,1.192-0.073,1.472,0.459   c0.28,0.533,0.075,1.192-0.459,1.472c-1.325,0.695-2.717,1.301-4.137,1.801C72.784,177.363,72.663,177.384,72.542,177.384z    M80.236,173.35c-0.337,0-0.669-0.155-0.882-0.448c-0.354-0.487-0.247-1.169,0.239-1.523c1.131-0.823,2.213-1.733,3.215-2.705   c0.431-0.418,1.121-0.409,1.541,0.023c0.419,0.432,0.409,1.122-0.023,1.541c-1.076,1.044-2.237,2.021-3.449,2.903   C80.683,173.282,80.459,173.35,80.236,173.35z M86.47,167.298c-0.233,0-0.468-0.075-0.666-0.229   c-0.476-0.368-0.563-1.053-0.194-1.528c0.86-1.11,1.643-2.286,2.329-3.495c0.297-0.523,0.96-0.706,1.486-0.411   c0.524,0.297,0.708,0.962,0.411,1.486c-0.738,1.3-1.579,2.563-2.503,3.755C87.118,167.153,86.796,167.298,86.47,167.298z    M90.744,159.733c-0.129,0-0.26-0.022-0.387-0.071c-0.562-0.214-0.845-0.843-0.631-1.406c0.507-1.334,0.894-2.681,1.151-4.006   c0.114-0.59,0.685-0.976,1.277-0.862c0.591,0.114,0.977,0.686,0.862,1.277c-0.28,1.446-0.701,2.916-1.253,4.366   C91.598,159.466,91.184,159.733,90.744,159.733z M92.337,151.212c-0.593,0-1.079-0.475-1.09-1.07   c-0.026-1.424-0.228-2.77-0.599-4.002c-0.175-0.576,0.152-1.185,0.728-1.358c0.576-0.177,1.185,0.151,1.358,0.728   c0.43,1.423,0.663,2.968,0.693,4.591c0.011,0.602-0.468,1.098-1.07,1.11C92.35,151.212,92.344,151.212,92.337,151.212z    M89.896,142.957c-0.37,0-0.731-0.188-0.936-0.529c-0.69-1.148-1.526-2.256-2.486-3.292c-0.41-0.442-0.383-1.131,0.059-1.54   c0.441-0.412,1.129-0.384,1.54,0.059c1.062,1.146,1.989,2.374,2.757,3.652c0.31,0.515,0.143,1.185-0.374,1.495   C90.28,142.907,90.086,142.957,89.896,142.957z M70.935,139.804c-0.527,0-0.99-0.382-1.075-0.919   c-0.095-0.594,0.31-1.153,0.905-1.247c0.978-0.156,2.211-0.694,3.564-1.556c0.508-0.322,1.181-0.175,1.505,0.334   c0.324,0.508,0.173,1.181-0.334,1.505c-1.626,1.035-3.105,1.664-4.392,1.869C71.05,139.799,70.992,139.804,70.935,139.804z    M67.559,137.824c-0.469,0-0.903-0.305-1.044-0.778c-0.045-0.149-0.084-0.305-0.12-0.468c-0.121-0.565-0.182-1.108-0.182-1.618   c0-1.207,0.337-2.24,1.004-3.072c0.377-0.469,1.063-0.544,1.533-0.168c0.469,0.377,0.545,1.062,0.168,1.533   c-0.348,0.434-0.525,1.008-0.525,1.707c0,0.357,0.045,0.745,0.132,1.156c0.022,0.101,0.049,0.206,0.079,0.307   c0.172,0.576-0.155,1.184-0.732,1.356C67.768,137.809,67.662,137.824,67.559,137.824z M84.036,136.576   c-0.227,0-0.457-0.071-0.652-0.218c-1.05-0.787-2.167-1.489-3.323-2.091c-0.32,0.307-0.643,0.605-0.964,0.892   c-0.447,0.399-1.138,0.364-1.539-0.087c-0.401-0.449-0.362-1.138,0.087-1.539c1.009-0.9,2.018-1.91,2.998-3.001   c0.404-0.447,1.094-0.482,1.539-0.083c0.448,0.402,0.485,1.092,0.083,1.539c-0.201,0.225-0.404,0.446-0.608,0.663   c1.052,0.582,2.068,1.241,3.033,1.965c0.482,0.361,0.58,1.043,0.218,1.525C84.695,136.425,84.368,136.576,84.036,136.576z    M76.291,132.674c-0.098,0-0.197-0.013-0.296-0.04c-1.319-0.37-2.544-0.559-3.642-0.559l-0.329,0.005   c-0.602,0.07-1.106-0.448-1.127-1.05c-0.021-0.601,0.449-1.107,1.05-1.127l0.406-0.007c1.297,0,2.721,0.215,4.232,0.64   c0.58,0.163,0.917,0.765,0.755,1.344C77.204,132.36,76.766,132.674,76.291,132.674z M84.207,128.967   c-0.225,0-0.451-0.069-0.646-0.213c-0.484-0.358-0.588-1.04-0.23-1.524c0.85-1.152,1.644-2.344,2.36-3.542   c0.305-0.517,0.976-0.685,1.494-0.377c0.516,0.309,0.685,0.977,0.377,1.494c-0.751,1.259-1.585,2.51-2.477,3.719   C84.871,128.814,84.541,128.967,84.207,128.967z M88.657,121.476c-0.151,0-0.304-0.031-0.451-0.098   c-0.547-0.25-0.789-0.896-0.54-1.444c0.607-1.33,1.108-2.654,1.491-3.936c0.172-0.578,0.773-0.906,1.356-0.732   c0.577,0.172,0.905,0.779,0.732,1.356c-0.412,1.377-0.948,2.795-1.595,4.217C89.467,121.24,89.071,121.476,88.657,121.476z    M91.089,113.137c-0.04,0-0.081-0.002-0.122-0.006c-0.598-0.067-1.028-0.607-0.962-1.205c0.077-0.683,0.117-1.366,0.117-2.039   c-0.001-0.689-0.043-1.373-0.13-2.047c-0.078-0.597,0.343-1.143,0.94-1.221c0.599-0.086,1.142,0.343,1.221,0.94   c0.098,0.748,0.148,1.53,0.149,2.327c0,0.756-0.045,1.517-0.13,2.283C92.109,112.726,91.637,113.137,91.089,113.137z    M89.943,104.593c-0.43,0-0.839-0.257-1.01-0.681c-0.511-1.261-1.172-2.472-1.965-3.597c-0.347-0.493-0.229-1.173,0.263-1.519   c0.493-0.345,1.173-0.23,1.519,0.263c0.889,1.262,1.631,2.62,2.203,4.036c0.226,0.558-0.043,1.193-0.601,1.419   C90.217,104.568,90.079,104.593,89.943,104.593z M68.094,100.453c-0.549,0-1.022-0.414-1.082-0.973   c-0.065-0.598,0.368-1.136,0.966-1.201c1.187-0.129,2.522-0.506,3.865-1.091c0.556-0.237,1.194,0.014,1.435,0.564   c0.241,0.551-0.012,1.194-0.564,1.435c-1.563,0.681-3.078,1.105-4.501,1.259C68.173,100.451,68.134,100.453,68.094,100.453z    M63.906,99.649c-0.218,0-0.437-0.065-0.629-0.201c-1.179-0.835-1.867-2.118-1.99-3.709c-0.013-0.166-0.019-0.328-0.019-0.487   c0-0.233,0.013-0.46,0.039-0.681c0.071-0.597,0.613-1.033,1.21-0.955c0.598,0.071,1.025,0.613,0.955,1.21   c-0.016,0.138-0.024,0.28-0.024,0.426c0,0.104,0.004,0.211,0.013,0.319c0.073,0.95,0.426,1.638,1.077,2.1   c0.492,0.348,0.607,1.028,0.259,1.519C64.584,99.49,64.248,99.649,63.906,99.649z M84.981,97.514c-0.264,0-0.528-0.095-0.738-0.287   c-0.996-0.916-2.109-1.753-3.308-2.488c-0.513-0.315-0.675-0.986-0.36-1.499c0.315-0.515,0.986-0.673,1.499-0.36   c1.319,0.809,2.545,1.731,3.644,2.742c0.443,0.408,0.473,1.097,0.065,1.54C85.568,97.396,85.275,97.514,84.981,97.514z    M76.063,97.126c-0.342,0-0.678-0.161-0.891-0.461c-0.348-0.491-0.231-1.171,0.261-1.519c1.119-0.791,2.186-1.699,3.174-2.697   c0.423-0.429,1.112-0.431,1.541-0.009c0.428,0.424,0.432,1.113,0.009,1.541c-1.077,1.089-2.243,2.08-3.465,2.944   C76.5,97.061,76.28,97.126,76.063,97.126z M77.602,92.966c-0.132,0-0.266-0.023-0.397-0.075c-1.309-0.512-2.652-0.899-3.989-1.153   c-0.592-0.112-0.98-0.681-0.868-1.273c0.112-0.591,0.684-0.972,1.273-0.868c1.47,0.278,2.943,0.702,4.379,1.263   c0.56,0.219,0.838,0.851,0.618,1.412C78.449,92.703,78.037,92.966,77.602,92.966z M64.874,92.432c-0.393,0-0.772-0.212-0.966-0.583   c-0.28-0.533-0.073-1.192,0.459-1.472c1.262-0.662,2.83-1.043,4.661-1.132c0.572-0.048,1.112,0.433,1.142,1.036   c0.029,0.601-0.434,1.112-1.036,1.142c-1.49,0.072-2.788,0.379-3.754,0.886C65.218,92.392,65.044,92.432,64.874,92.432z    M82.172,90.962c-0.216,0-0.434-0.064-0.625-0.198c-0.493-0.346-0.612-1.026-0.266-1.518c0.798-1.138,1.508-2.349,2.109-3.603   c0.259-0.541,0.91-0.772,1.454-0.511c0.543,0.26,0.772,0.911,0.511,1.454c-0.653,1.361-1.424,2.677-2.29,3.911   C82.853,90.801,82.515,90.962,82.172,90.962z M85.93,83.141c-0.101,0-0.204-0.014-0.307-0.044c-0.578-0.17-0.909-0.775-0.74-1.353   c0.387-1.319,0.676-2.696,0.86-4.094c0.077-0.597,0.615-1.025,1.222-0.939c0.597,0.078,1.017,0.626,0.939,1.222   c-0.198,1.51-0.511,2.999-0.928,4.424C86.837,82.833,86.402,83.141,85.93,83.141z M87.073,74.536c-0.597,0-1.085-0.481-1.09-1.079   c-0.014-1.477-0.113-2.892-0.293-4.205c-0.081-0.596,0.336-1.146,0.932-1.228c0.593-0.075,1.145,0.336,1.228,0.932   c0.192,1.404,0.297,2.911,0.312,4.48c0.005,0.602-0.478,1.095-1.079,1.1C87.08,74.536,87.076,74.536,87.073,74.536z M85.823,65.95   c-0.46,0-0.888-0.293-1.037-0.754c-0.443-1.364-1.014-2.611-1.7-3.703c-0.319-0.51-0.165-1.182,0.345-1.503   c0.508-0.322,1.181-0.165,1.503,0.345c0.779,1.244,1.427,2.653,1.925,4.188c0.186,0.573-0.128,1.187-0.7,1.373   C86.047,65.933,85.933,65.95,85.823,65.95z M81.183,58.718c-0.249,0-0.499-0.085-0.704-0.259c-1.007-0.854-2.158-1.553-3.423-2.076   c-0.556-0.231-0.82-0.868-0.59-1.424c0.23-0.557,0.872-0.821,1.424-0.59c1.474,0.611,2.819,1.427,3.998,2.428   c0.46,0.39,0.516,1.077,0.127,1.536C81.8,58.587,81.493,58.718,81.183,58.718z M73.266,55.362c-0.047,0-0.094-0.003-0.142-0.01   c-1.825-0.235-4.032-0.035-4.042-0.035c-0.591,0.097-1.152-0.314-1.245-0.908c-0.093-0.594,0.312-1.152,0.905-1.245   c0.035-0.006,0.864-0.135,2.151-0.135c0.839,0,1.684,0.054,2.513,0.163c0.597,0.077,1.017,0.624,0.94,1.221   C74.274,54.962,73.806,55.362,73.266,55.362z" fill="#241726" data-original="#241726"></path>
	<g>
		<path style="" d="M391.655,258.038c0,0,78.909,34.677,79.923,36.933c2.087,4.642-30.916,82.175-38.935,80.319    s-82.309-34.228-79.402-39.271C356.148,330.977,391.655,258.038,391.655,258.038z" fill="#E17B8D" data-original="#e17b8d"></path>
		<path style="" d="M394.745,361.09c-0.152,0-0.308-0.032-0.456-0.1c-0.546-0.252-0.785-0.899-0.533-1.446    l38.495-83.524c0.251-0.545,0.897-0.787,1.446-0.533c0.546,0.252,0.785,0.899,0.533,1.446l-38.495,83.524    C395.551,360.855,395.158,361.09,394.745,361.09z" fill="#241726" data-original="#241726"></path>
		<path style="" d="M464.558,321.851c-0.158,0-0.318-0.034-0.47-0.107l-84.208-40.431    c-0.543-0.261-0.772-0.911-0.511-1.454c0.261-0.542,0.909-0.774,1.454-0.511l84.208,40.431c0.543,0.261,0.772,0.911,0.511,1.454    C465.354,321.623,464.965,321.851,464.558,321.851z" fill="#241726" data-original="#241726"></path>
		<path style="" d="M425.811,326.108c-0.927,0-1.787-0.397-2.485-1.148c-2.919-3.138-3.096-12.981-2.933-18.679    c-3.135,4.528-8.847,11.83-13.065,11.831h-0.001c-0.92,0-2.224-0.328-3.229-1.888c-0.499-0.775-0.634-1.709-0.392-2.704    c0.706-2.892,4.768-6.425,8.653-9.235c-2.971,0.808-6.282,1.472-9.146,1.472c0,0-0.001,0-0.002,0    c-5.825,0-7.384-2.781-7.667-5.114c-0.115-0.951,0.15-1.823,0.766-2.518c1.255-1.417,3.987-2.104,8.352-2.104    c3.852,0,8.221,0.529,11.345,0.999c-4.222-3.702-10.53-10.574-7.359-16.423c0.875-1.613,1.982-1.952,2.758-1.952    c4.495,0,9.986,12.881,12.277,18.817c3.106-2.934,10.999-9.952,15.455-9.952c1.472,0,2.588,0.728,3.144,2.05    c0.89,2.116,0.795,4.055-0.282,5.764c-2.404,3.815-9.418,5.399-13.961,6.039c4.571,2.252,11.904,6.48,13.449,11.047    c0.531,1.571,0.385,3.073-0.433,4.463c-1.138,1.932-2.543,2.912-4.177,2.912h-0.001c-3.025,0.001-6.143-3.754-8.67-7.914    c1.12,5.134,1.741,10.513,0.208,12.83c-0.561,0.847-1.378,1.331-2.364,1.401c-0.026,0.002-0.211,0.009-0.236,0.009H425.811z     M425.811,323.929l0.001,1.09l0.083-1.092c0.309-0.022,0.512-0.147,0.699-0.431c1.925-2.907-1.251-15.319-3.705-22.459    c-0.071-0.208-0.077-0.423-0.027-0.622c-0.293-0.11-0.528-0.343-0.638-0.642c-3.372-9.113-8.468-18.949-10.821-18.949    c-0.332,0-0.641,0.442-0.842,0.811c-2.975,5.488,6.246,13.608,10.051,16.274c0.421,0.296,0.579,0.847,0.377,1.321    c-0.036,0.083-0.081,0.161-0.134,0.23c0.194,0.104,0.357,0.267,0.461,0.477c0.255,0.516,0.065,1.142-0.435,1.428    c-3.87,2.219-14.119,8.819-15.059,12.671c-0.134,0.548-0.003,0.839,0.106,1.009c0.507,0.787,1.012,0.888,1.396,0.888l0,0    c3.435-0.001,10.055-8.684,13.42-14.156c0.262-0.431,0.782-0.623,1.262-0.467c0.478,0.154,0.789,0.615,0.752,1.116    c-0.35,4.832-0.646,18.034,2.161,21.05C425.299,323.882,425.61,323.929,425.811,323.929L425.811,323.929z M425.982,302.786    c2.887,6.547,7.618,14.817,10.892,14.817l0,0c0.808,0,1.583-0.618,2.301-1.839c0.489-0.83,0.569-1.7,0.246-2.657    C438.104,309.209,430.689,305.007,425.982,302.786z M404.661,298.2c-4.79,0-6.267,0.858-6.721,1.37    c-0.203,0.231-0.274,0.474-0.232,0.811c0.096,0.791,0.387,3.197,5.505,3.196c5.593,0,13.368-2.849,15.885-3.833    C416.953,299.354,410.15,298.2,404.661,298.2z M439.136,289.689c-3.502,0-11.107,6.614-14.481,9.856    c4.172-0.31,13.181-1.706,15.5-5.384c0.684-1.087,0.723-2.315,0.116-3.756C440.054,289.889,439.736,289.689,439.136,289.689z" fill="#241726" data-original="#241726"></path>
		<g>
			<path style="" d="M377.544,309.97c-0.438,0-0.853-0.267-1.019-0.701c-1.552-4.073,2.854-8.758,3.043-8.956     c0.415-0.437,1.105-0.45,1.539-0.036c0.436,0.414,0.453,1.104,0.039,1.54c-1.017,1.072-3.466,4.362-2.584,6.675     c0.214,0.563-0.068,1.192-0.63,1.407C377.805,309.948,377.673,309.97,377.544,309.97z" fill="#241726" data-original="#241726"></path>
			<path style="" d="M382.087,319.008c-0.44,0-0.853-0.267-1.019-0.702c-1.551-4.072,2.856-8.757,3.044-8.955     c0.416-0.436,1.105-0.451,1.539-0.036c0.436,0.414,0.453,1.104,0.039,1.54c-1.017,1.072-3.466,4.362-2.585,6.676     c0.214,0.562-0.068,1.192-0.631,1.406C382.346,318.986,382.215,319.008,382.087,319.008z" fill="#241726" data-original="#241726"></path>
			<path style="" d="M378.726,331.908c-0.4,0-0.784-0.22-0.976-0.602c-1.971-3.942,1.92-8.964,2.086-9.175     c0.37-0.473,1.056-0.553,1.529-0.183c0.473,0.37,0.556,1.056,0.185,1.529c-0.896,1.145-2.974,4.608-1.851,6.854     c0.269,0.539,0.051,1.193-0.487,1.462C379.056,331.871,378.89,331.908,378.726,331.908z" fill="#241726" data-original="#241726"></path>
			<path style="" d="M374.065,324.368c-0.353,0-0.7-0.171-0.91-0.489c-2.51-3.79,0.572-9.126,0.704-9.352     c0.304-0.517,0.971-0.689,1.49-0.387c0.518,0.303,0.693,0.971,0.391,1.49c-0.026,0.044-2.523,4.392-0.766,7.047     c0.332,0.501,0.195,1.178-0.308,1.51C374.48,324.31,374.271,324.368,374.065,324.368z" fill="#241726" data-original="#241726"></path>
			<path style="" d="M372.564,338.244c-0.353,0-0.7-0.171-0.91-0.488c-2.51-3.791,0.573-9.128,0.705-9.353     c0.305-0.516,0.972-0.691,1.49-0.387c0.519,0.303,0.693,0.971,0.391,1.49c-0.026,0.044-2.525,4.392-0.767,7.048     c0.332,0.501,0.195,1.178-0.308,1.51C372.979,338.185,372.771,338.244,372.564,338.244z" fill="#241726" data-original="#241726"></path>
		</g>
	</g>
	<g>
		<path style="" d="M5.389,225.108c0,0,61.073-36.718,66.22-32.857c5.147,3.86,42.461,65.622,46.321,69.482    c3.86,3.86-66.909,54.042-75.916,47.608C33.008,302.907,1.529,226.395,5.389,225.108z" fill="#B1739A" data-original="#b1739a"></path>
		<path style="" d="M18.718,232.596c-0.444,0-0.861-0.274-1.023-0.714c-0.485-1.322-11.771-32.527-3.822-47.739    c2.043-3.91,5.195-6.447,9.367-7.54c22.917-5.993,46.074,30.38,47.049,31.93c0.32,0.51,0.167,1.182-0.343,1.503    c-0.507,0.32-1.181,0.166-1.503-0.343c-0.23-0.367-23.271-36.567-44.652-30.981c-3.602,0.943-6.213,3.049-7.986,6.438    c-7.506,14.358,3.82,45.665,3.935,45.98c0.208,0.565-0.083,1.191-0.648,1.397C18.969,232.574,18.842,232.596,18.718,232.596z" fill="#241726" data-original="#241726"></path>
		<path style="" d="M46.442,298.172c-0.402,0-0.79-0.224-0.979-0.61c-0.265-0.54-0.043-1.193,0.498-1.458    c16.482-8.094,59.714-30.928,61.801-39.272c0.145-0.585,0.732-0.942,1.321-0.793c0.584,0.146,0.94,0.738,0.793,1.321    c-2.71,10.842-56.796,37.677-62.955,40.7C46.767,298.136,46.603,298.172,46.442,298.172z" fill="#241726" data-original="#241726"></path>
		<circle style="" cx="19.251" cy="233.638" r="5.331" fill="#1A1F36" data-original="#1a1f36"></circle>
		<circle style="" cx="69.367" cy="209.114" r="5.331" fill="#1A1F36" data-original="#1a1f36"></circle>
		<path style="" d="M53.785,242.934c0,0-3.078-14.627,1.187-13.561c4.265,1.066,8.873,6.535,8.873,6.535    s11.92-3.869,12.986-1.736s-3.246,8.762-3.246,8.762s9.064,5.611,7.026,8.782c-1.437,2.235-13.413,1.277-13.413,1.277    s-2.076,14.052-6.895,11.567c-2.763-1.424-4.442-11.567-4.442-11.567s-11.551,1.656-11.018-2.076    C45.376,247.185,53.785,242.934,53.785,242.934z" fill="#FDFFFF" data-original="#fdffff"></path>
	</g>
	<g>
		<path style="" d="M161.914,0.475c0,0,30.516,13.078,55.219,20.344s-11.625,40.688-34.875,27.61    s-26.157-31.969-29.063-23.25s11.625,34.875,4.359,34.875s-10.535,2.543-10.535-1.816s-14.168-44.684-6.902-50.497    S161.914,0.475,161.914,0.475z" fill="#DC5B44" data-original="#dc5b44"></path>
		<path style="" d="M191.044,33.607c-0.635,0-1.29-0.024-1.968-0.077c-7.57-0.582-13.914-8.683-20.048-16.516    c-5.659-7.226-11.006-14.064-15.955-12.934c-0.582,0.128-1.17-0.236-1.304-0.823c-0.132-0.588,0.236-1.171,0.823-1.304    c6.301-1.434,12.055,5.931,18.152,13.716c5.844,7.462,11.886,15.178,18.501,15.687c13.19,1.004,17.017-9.346,17.053-9.449    c0.201-0.569,0.824-0.867,1.391-0.663c0.567,0.201,0.864,0.824,0.663,1.391C208.311,22.751,204.297,33.607,191.044,33.607z" fill="#241726" data-original="#241726"></path>
		<path style="" d="M198.799,38.979c-1.083,0-2.2-0.12-3.348-0.388c-0.585-0.136-0.95-0.723-0.813-1.309    c0.136-0.585,0.717-0.947,1.309-0.813c10.052,2.336,18.032-8.894,18.112-9.008c0.342-0.494,1.022-0.615,1.518-0.27    c0.493,0.344,0.614,1.024,0.27,1.518C215.525,29.17,208.562,38.979,198.799,38.979z" fill="#FBFFFF" data-original="#fbffff"></path>
	</g>
	<g>
		<path style="" d="M357.334,261.255h-0.006c-0.602-0.004-1.088-0.494-1.083-1.096l0.109-18.342    c0.004-0.6,0.492-1.083,1.09-1.083h0.006c0.602,0.004,1.088,0.494,1.083,1.096l-0.109,18.342    C358.42,260.771,357.932,261.255,357.334,261.255z" fill="#241726" data-original="#241726"></path>
		<path style="" d="M349.939,257.251c-0.343,0-0.681-0.162-0.894-0.466c-0.345-0.494-0.223-1.173,0.27-1.518    l15.147-10.56c0.487-0.341,1.171-0.226,1.518,0.27c0.345,0.494,0.224,1.173-0.27,1.518l-15.147,10.56    C350.373,257.187,350.156,257.251,349.939,257.251z" fill="#241726" data-original="#241726"></path>
		<path style="" d="M363.239,258.021c-0.289,0-0.577-0.115-0.792-0.341l-11.452-12.101    c-0.413-0.436-0.394-1.128,0.043-1.541c0.439-0.415,1.126-0.392,1.541,0.043l11.452,12.101c0.413,0.436,0.394,1.128-0.043,1.541    C363.777,257.923,363.507,258.021,363.239,258.021z" fill="#241726" data-original="#241726"></path>
		<path style="" d="M347.868,251.889c-0.598,0-1.083-0.481-1.09-1.079c-0.006-0.602,0.477-1.094,1.079-1.101    l17.642-0.168h0.006c0.602,0,1.088,0.481,1.094,1.079c0.006,0.602-0.477,1.094-1.079,1.1l-17.642,0.168H347.868z" fill="#241726" data-original="#241726"></path>
	</g>
	<g>
		<path style="" d="M133.462,250.313h-0.006c-0.602-0.004-1.088-0.494-1.083-1.096l0.109-18.342    c0.004-0.6,0.492-1.083,1.09-1.083h0.006c0.602,0.004,1.088,0.494,1.083,1.096l-0.109,18.342    C134.548,249.83,134.061,250.313,133.462,250.313z" fill="#241726" data-original="#241726"></path>
		<path style="" d="M126.068,246.309c-0.343,0-0.681-0.162-0.894-0.466c-0.345-0.494-0.224-1.173,0.27-1.518    l15.147-10.56c0.487-0.341,1.171-0.226,1.518,0.27c0.345,0.494,0.224,1.173-0.27,1.518l-15.147,10.56    C126.502,246.246,126.285,246.309,126.068,246.309z" fill="#241726" data-original="#241726"></path>
		<path style="" d="M139.367,247.08c-0.289,0-0.577-0.115-0.792-0.341l-11.452-12.101    c-0.413-0.436-0.394-1.128,0.043-1.541c0.438-0.415,1.126-0.392,1.541,0.043l11.452,12.101c0.413,0.436,0.394,1.128-0.043,1.541    C139.906,246.982,139.635,247.08,139.367,247.08z" fill="#241726" data-original="#241726"></path>
		<path style="" d="M123.996,240.947c-0.598,0-1.083-0.481-1.09-1.079c-0.006-0.602,0.477-1.094,1.079-1.1    l17.642-0.168h0.006c0.602,0,1.088,0.481,1.094,1.079c0.006,0.602-0.477,1.094-1.079,1.101l-17.642,0.168H123.996z" fill="#241726" data-original="#241726"></path>
	</g>
	<g>
		<path style="" d="M333.996,25.803h-0.006c-0.602-0.004-1.088-0.494-1.083-1.096l0.109-18.342    c0.004-0.6,0.492-1.083,1.09-1.083h0.006c0.602,0.004,1.088,0.494,1.083,1.096l-0.109,18.342    C335.081,25.32,334.594,25.803,333.996,25.803z" fill="#241726" data-original="#241726"></path>
		<path style="" d="M326.601,21.799c-0.343,0-0.681-0.162-0.894-0.466c-0.345-0.494-0.224-1.173,0.27-1.518    l15.147-10.56c0.487-0.341,1.171-0.226,1.518,0.27c0.345,0.494,0.224,1.173-0.27,1.518l-15.147,10.56    C327.035,21.735,326.818,21.799,326.601,21.799z" fill="#241726" data-original="#241726"></path>
		<path style="" d="M339.901,22.57c-0.289,0-0.577-0.115-0.792-0.341l-11.452-12.101    c-0.413-0.436-0.394-1.128,0.043-1.541c0.439-0.415,1.126-0.392,1.541,0.043l11.452,12.101c0.413,0.436,0.394,1.128-0.043,1.541    C340.439,22.472,340.169,22.57,339.901,22.57z" fill="#241726" data-original="#241726"></path>
		<path style="" d="M324.53,16.437c-0.598,0-1.083-0.481-1.09-1.079c-0.006-0.602,0.477-1.094,1.079-1.1l17.642-0.168    h0.006c0.602,0,1.088,0.481,1.094,1.079c0.006,0.602-0.477,1.094-1.079,1.1l-17.642,0.168H324.53z" fill="#241726" data-original="#241726"></path>
	</g>
	<path style="" d="M135.435,484.981c-0.132,0-0.465-0.061-0.589-0.108c-0.326-0.125-0.572-0.397-0.663-0.732   c-0.013-0.049-1.277-4.7-2.63-10.29c-11.29-1.026-11.582-1.766-11.864-2.482c-0.152-0.384-0.042-0.954,0.234-1.261   c0.702-0.782,5.942-4.266,9.353-6.477c-1.661-8.457-1.179-9.944-0.592-10.662c0.33-0.402,0.896-0.611,1.392-0.529   c1.464,0.244,5.243,2.995,8.374,5.446c7.848-4.713,8.967-4.712,9.451-4.712c0.623,0,0.955,0.326,1.097,0.52   c0.205,0.28,0.274,0.855,0.169,1.186c-0.462,1.464-1.682,5.21-3.132,9.345c8.026,7.171,7.686,8.575,7.521,9.258   c-0.129,0.539-0.544,0.946-1.108,1.091c-0.384,0.099-1.177,0.23-3.607,0.23c-1.755,0-4.06-0.07-6.704-0.203   C138.225,484.165,136.627,484.981,135.435,484.981z M133.844,474.05c0.848,3.473,1.64,6.507,2.081,8.17   c0.664-0.854,1.886-2.89,3.907-7.745C137.848,474.356,135.821,474.213,133.844,474.05z M142.994,472.461   c3.906,0.183,6.985,0.185,8.122,0.102c-0.632-0.947-2.311-2.884-5.87-6.116C144.462,468.626,143.709,470.639,142.994,472.461z    M133.307,471.818c2.427,0.205,4.953,0.385,7.392,0.524c0.873-2.198,1.809-4.7,2.792-7.458c-1.665-1.456-3.443-2.942-5.206-4.35   c-2.154,1.312-4.423,2.74-6.579,4.123C132.144,466.776,132.68,469.178,133.307,471.818z M122.853,470.57   c1.419,0.278,3.969,0.646,8.165,1.043c-0.482-2.051-0.909-3.954-1.274-5.687C126.516,468.029,124.194,469.612,122.853,470.57z    M140.274,459.336c1.351,1.09,2.7,2.218,3.995,3.338c0.931-2.677,1.745-5.126,2.293-6.807   C145.483,456.371,143.582,457.368,140.274,459.336z M130.323,454.846c-0.05,0.846,0.047,2.851,0.929,7.514   c1.717-1.097,3.489-2.211,5.204-3.263C133.329,456.683,131.311,455.364,130.323,454.846z" fill="#241726" data-original="#241726"></path>
</g>
<path xmlns="http://www.w3.org/2000/svg" style="" d="M383.643,405.36h-0.032c-4.102-0.017-7.425-3.369-7.408-7.473c0.017-4.086,3.354-7.408,7.44-7.408  c2.02,0.008,3.886,0.79,5.286,2.202c1.398,1.41,2.165,3.283,2.156,5.269C391.066,402.035,387.727,405.36,383.643,405.36z   M383.666,392.63c-2.928,0-5.298,2.362-5.311,5.264c-0.013,2.917,2.35,5.3,5.264,5.313h0.023l0,0c2.902,0,5.275-2.362,5.29-5.267  c0.006-1.412-0.538-2.743-1.534-3.745C386.405,393.191,385.078,392.637,383.666,392.63z" fill="#241726" data-original="#241726"></path>
<path xmlns="http://www.w3.org/2000/svg" style="" d="M43.447,417.16h-0.032c-4.102-0.017-7.425-3.369-7.408-7.473c0.017-4.086,3.354-7.408,7.44-7.408  c2.02,0.008,3.886,0.79,5.286,2.202c1.398,1.41,2.165,3.283,2.156,5.269C50.869,413.836,47.53,417.16,43.447,417.16z M43.47,404.431  c-2.928,0-5.298,2.362-5.311,5.265c-0.013,2.917,2.35,5.3,5.265,5.313h0.023l0,0c2.902,0,5.275-2.362,5.29-5.267  c0.006-1.412-0.538-2.743-1.534-3.745C46.208,404.992,44.882,404.437,43.47,404.431z" fill="#241726" data-original="#241726"></path>
<path xmlns="http://www.w3.org/2000/svg" style="" d="M118.709,83.141h-0.032c-4.102-0.017-7.425-3.369-7.408-7.473c0.017-4.086,3.354-7.408,7.44-7.408  c2.02,0.008,3.886,0.79,5.286,2.202c1.398,1.41,2.165,3.283,2.156,5.269C126.132,79.816,122.792,83.141,118.709,83.141z   M118.732,70.411c-2.928,0-5.298,2.362-5.311,5.265c-0.013,2.917,2.35,5.3,5.265,5.313h0.023l0,0c2.902,0,5.275-2.362,5.29-5.267  c0.006-1.412-0.538-2.743-1.534-3.745C121.47,70.973,120.144,70.418,118.732,70.411z" fill="#241726" data-original="#241726"></path>















</g></svg>